<?xml version="1.0" encoding="utf-8"?>
<!-- Generator: Adobe Illustrator 21.0.0, SVG Export Plug-In . SVG Version: 6.00 Build 0)  -->
<svg version="1.1" id="图层_1" xmlns="http://www.w3.org/2000/svg" xmlns:xlink="http://www.w3.org/1999/xlink" x="0px" y="0px"
	 viewBox="0 0 414 896" style="enable-background:new 0 0 414 896;" xml:space="preserve">
<style type="text/css">
	.st0{fill:#B28E6F;}
	.st1{fill:#F6D9B5;}
	.st2{fill:#EBAE4D;}
	.st3{fill:#DF695A;}
	.st4{fill:#C5564C;}
	.st5{fill:#201E20;}
	.st6{fill:#545F6F;}
	.st7{fill:#E6B443;stroke:#201E20;stroke-width:3;stroke-miterlimit:10;}
	.st8{fill:#363B46;}
	.st9{opacity:0.3;fill:#C49772;}
	.st10{fill:#D9AD83;}
	.st11{fill:#EFBA41;}
	.st12{fill:#717071;}
	.st13{fill:none;stroke:#201E20;stroke-width:3;stroke-miterlimit:10;}
	.st14{fill:none;stroke:#201E20;stroke-miterlimit:10;}
	.st15{fill:#FFFFFF;}
	.st16{fill:none;}
	.st17{fill:#FFFFFF;stroke:#000000;stroke-miterlimit:10;}
</style>
<rect x="64.2" y="448.1" class="st0" width="285.9" height="9.6"/>
<rect x="64.2" y="457.7" class="st1" width="285.9" height="4.9"/>
<g>
	<rect x="236.6" y="0" class="st2" width="3.1" height="197.4"/>
	<rect x="308.5" y="0" class="st2" width="3.1" height="197.4"/>
	<rect x="102.5" y="0" class="st2" width="3.1" height="197.4"/>
	<rect x="174.4" y="0" class="st2" width="3.1" height="197.4"/>
</g>
<rect x="64.2" y="462.6" class="st3" width="293.5" height="433.4"/>
<polygon class="st4" points="357.6,807.7 64.2,598 64.2,462.6 357.6,462.6 "/>
<path class="st5" d="M0,896c0-32.6,92.7-59,207-59c113.1,0,205.1,25.9,207,58v-39.1c-41-23.8-118.3-38.8-207-38.8
	c-88.7,0-166.1,14.9-207,38.8L0,896L0,896z"/>
<path class="st6" d="M207.1,837c-114.3,0-207,26.4-207,59h414v-1C412.1,862.9,320.2,837,207.1,837z"/>
<rect x="368.9" y="0" class="st1" width="45.1" height="841.8"/>
<rect x="368.7" y="807.7" transform="matrix(-1 -3.046524e-10 3.046524e-10 -1 782.8204 1703.7206)" class="st8" width="45.4" height="88.3"/>
<rect x="0" y="0" class="st1" width="45.3" height="833.4"/>
<rect x="0" y="197.4" class="st1" width="413.9" height="31"/>
<polygon class="st10" points="346.7,448 67.4,448 0,300.1 0,228.4 414,228.4 414,298.4 "/>
<rect x="349" y="0" class="st1" width="19.8" height="197.4"/>
<rect x="44.6" y="0" class="st10" width="19.8" height="197.4"/>
<rect x="44.6" y="376.4" class="st10" width="19.8" height="456.9"/>
<polygon class="st1" points="368.9,824.1 349,875.3 349,418.4 368.9,418.4 "/>
<polygon class="st10" points="368.9,782.1 349,833.3 349,376.4 368.9,376.4 "/>
<g>
	<polygon class="st11" points="124.9,255.1 285.4,255.1 253.5,440.1 157.7,440.7 	"/>
	<polygon class="st11" points="7.7,255.1 70.9,255.1 86.2,313.3 31.6,313.3 	"/>
	<polygon class="st11" points="31,314.1 86.4,314.1 118.3,440.7 83.1,438.8 	"/>
	<polygon class="st11" points="406.5,255.1 343.2,255.1 328,313.3 382.6,313.3 	"/>
	<polygon class="st11" points="383.1,314.1 327.7,314.1 295.9,440.1 331.3,440.1 	"/>
</g>
<rect x="63.9" y="0" class="st10" width="38.5" height="197.4"/>
<rect x="105.5" y="0" class="st11" width="68.9" height="197.4"/>
<rect x="239.5" y="0" class="st11" width="68.9" height="197.4"/>
<rect x="177.4" y="0" class="st10" width="59.2" height="197.4"/>
<rect x="311.5" y="0" class="st10" width="38.7" height="197.4"/>
<polygon class="st8" points="350.1,896 368.9,896 368.9,807.7 350.1,794.4 "/>
<rect x="0" y="807.7" transform="matrix(-1 -3.228006e-10 3.228006e-10 -1 42.8865 1703.7206)" class="st8" width="42.9" height="88.3"/>
<polygon class="st8" points="63.9,896 42.9,896 42.9,807.7 63.9,792.7 "/>
<rect x="-0.1" y="123.6" class="st12" width="45.4" height="13"/>
<rect x="-0.1" y="146.2" class="st12" width="45.4" height="13"/>
<rect x="-0.1" y="168.9" class="st12" width="45.4" height="13"/>
<polygon class="st8" points="63.9,162.1 45.2,136.6 45.2,123.6 63.9,149.1 "/>
<polygon class="st8" points="63.9,184.7 45.2,159.2 45.2,146.2 63.9,171.7 "/>
<polygon class="st8" points="63.9,196.5 55.9,196.5 45.2,181.9 45.2,168.9 63.9,194.4 "/>
<polygon class="st8" points="356.1,426.9 368.8,423.4 368.8,410.4 362.5,412.1 "/>
<rect x="0" y="410.4" transform="matrix(-1 -4.755453e-11 4.755453e-11 -1 42.89 833.7217)" class="st12" width="42.9" height="13"/>
<polygon class="st8" points="58.2,427.7 42.9,423.4 42.9,410.4 52,412.9 "/>
<rect x="-0.1" y="22.1" class="st12" width="45.4" height="13"/>
<rect x="-0.1" y="44.7" class="st12" width="45.4" height="13"/>
<rect x="-0.1" y="67.4" class="st12" width="45.4" height="13"/>
<polyline class="st13" points="0,896 0,300.1 42.7,392.2 42.7,896 "/>
<rect x="105.4" class="st14" width="72" height="197.1"/>
<rect x="102.5" class="st14" width="72" height="197.1"/>
<rect x="239.5" class="st14" width="72" height="197.1"/>
<rect x="236.6" class="st14" width="72" height="197.1"/>
<polygon class="st13" points="67.4,448 -32.2,229 414,229 445.2,229 413.8,298.7 346.7,448 "/>
<polyline class="st13" points="120.5,197.1 120.5,229 157.7,440.7 253.6,440.7 289.8,229 289.8,197.1 "/>
<polyline class="st13" points="420.2,220.5 330,440.7 295.7,440.7 349.7,229 349.7,197.1 "/>
<polyline class="st13" points="-4.7,224.2 83.9,440.7 118.3,440.7 64.3,229 64.3,197.1 "/>
<line class="st13" x1="-1.6" y1="197.1" x2="414" y2="197.1"/>
<line class="st14" x1="135.4" y1="313.3" x2="275.5" y2="313.3"/>
<line class="st14" x1="142.8" y1="355.6" x2="268.2" y2="355.6"/>
<line class="st14" x1="148.4" y1="387.5" x2="262.7" y2="387.5"/>
<line class="st14" x1="152.4" y1="410.4" x2="258.7" y2="410.4"/>
<line class="st14" x1="285.4" y1="255.1" x2="124.9" y2="255.1"/>
<line class="st14" x1="63.9" y1="83.2" x2="350.1" y2="83.2"/>
<line class="st14" x1="63.9" y1="152.7" x2="350.1" y2="152.7"/>
<line class="st14" x1="328.1" y1="313.3" x2="382.1" y2="313.3"/>
<line class="st14" x1="317.4" y1="355.6" x2="364.8" y2="355.6"/>
<line class="st14" x1="309.5" y1="387.5" x2="351.7" y2="387.5"/>
<line class="st14" x1="303.6" y1="410.4" x2="342.5" y2="410.4"/>
<line class="st14" x1="343" y1="255.1" x2="405.9" y2="255.1"/>
<line class="st14" x1="85.6" y1="313.3" x2="31.6" y2="313.3"/>
<line class="st14" x1="96.3" y1="355.6" x2="48.9" y2="355.6"/>
<line class="st14" x1="104.2" y1="387.5" x2="62" y2="387.5"/>
<line class="st14" x1="110.1" y1="410.4" x2="71.2" y2="410.4"/>
<line class="st14" x1="70.7" y1="255.1" x2="7.8" y2="255.1"/>
<polygon class="st8" points="63.9,60.6 45.2,35.1 45.2,22.1 63.9,47.6 "/>
<polygon class="st8" points="63.9,83.2 45.2,57.7 45.2,44.7 63.9,70.2 "/>
<polygon class="st8" points="63.9,105.9 45.2,80.4 45.2,67.4 63.9,92.9 "/>
<line class="st13" x1="63.9" y1="0" x2="63.9" y2="197.1"/>
<line class="st13" x1="63.9" y1="440.1" x2="63.9" y2="896"/>
<rect x="368.7" y="410.4" transform="matrix(-1 -4.490820e-11 4.490820e-11 -1 782.8239 833.7217)" class="st12" width="45.4" height="13"/>
<g>
	
		<rect x="368.7" y="123.6" transform="matrix(-1 -4.490820e-11 4.490820e-11 -1 782.8239 260.11)" class="st12" width="45.4" height="13"/>
	
		<rect x="368.7" y="146.2" transform="matrix(-1 -4.486779e-11 4.486779e-11 -1 782.8239 305.4433)" class="st12" width="45.4" height="13"/>
	
		<rect x="368.7" y="168.9" transform="matrix(-1 -4.486779e-11 4.486779e-11 -1 782.8239 350.7767)" class="st12" width="45.4" height="13"/>
	<polygon class="st8" points="350.1,162.1 368.9,136.6 368.9,123.6 350.1,149.1 	"/>
	<polygon class="st8" points="350.1,184.7 368.9,159.2 368.9,146.2 350.1,171.7 	"/>
	<polygon class="st8" points="350.1,196.5 358.1,196.5 368.9,181.9 368.9,168.9 350.1,194.4 	"/>
	
		<rect x="368.7" y="22.1" transform="matrix(-1 -4.490820e-11 4.490820e-11 -1 782.8239 57.11)" class="st12" width="45.4" height="13"/>
	
		<rect x="368.7" y="44.7" transform="matrix(-1 -4.486779e-11 4.486779e-11 -1 782.8239 102.4433)" class="st12" width="45.4" height="13"/>
	
		<rect x="368.7" y="67.4" transform="matrix(-1 -4.486779e-11 4.486779e-11 -1 782.8239 147.7767)" class="st12" width="45.4" height="13"/>
	<polygon class="st8" points="350.1,60.6 368.9,35.1 368.9,22.1 350.1,47.6 	"/>
	<polygon class="st8" points="350.1,83.2 368.9,57.7 368.9,44.7 350.1,70.2 	"/>
	<polygon class="st8" points="350.1,105.9 368.9,80.4 368.9,67.4 350.1,92.9 	"/>
</g>
<line class="st13" x1="350.1" y1="0" x2="350.1" y2="197.1"/>
<line class="st13" x1="350.1" y1="440.1" x2="350.1" y2="896"/>
<rect x="63.9" y="448" class="st13" width="286.2" height="9.7"/>
<rect x="63.9" y="457.7" class="st13" width="286.2" height="4.9"/>
<polyline class="st13" points="368.9,0 368.9,197.1 414,197.1 414,0 "/>
<polyline class="st13" points="45.1,0 45.1,197.1 0,197.1 0,0 "/>
<polyline class="st13" points="414,896 414,298.4 368.9,398.6 368.9,896 "/>
<path class="st17" d="M414.1,896L414.1,896L414.1,896L414.1,896C414.1,896,414.1,896,414.1,896z"/>
<path class="st17" d="M414,896L414,896c0-0.3,0-0.7,0-1V896z"/>
</svg>
