<?xml version="1.0" encoding="utf-8"?>
<!-- Generator: Adobe Illustrator 21.0.0, SVG Export Plug-In . SVG Version: 6.00 Build 0)  -->
<svg version="1.1" id="图层_1" xmlns="http://www.w3.org/2000/svg" xmlns:xlink="http://www.w3.org/1999/xlink" x="0px" y="0px"
	 viewBox="0 0 385.8 223" style="enable-background:new 0 0 385.8 223;" xml:space="preserve">
<style type="text/css">
	.st0{fill:#B28E6F;}
	.st1{fill:#F6D9B5;}
	.st2{fill:#EBAE4D;}
	.st3{fill:#DF695A;}
	.st4{fill:#C5564C;}
	.st5{fill:#201E20;}
	.st6{fill:#545F6F;}
	.st7{fill:#E6B443;stroke:#201E20;stroke-width:3;stroke-miterlimit:10;}
	.st8{fill:#363B46;}
	.st9{opacity:0.3;fill:#C49772;}
	.st10{fill:#D9AD83;}
	.st11{fill:#EFBA41;}
	.st12{fill:#717071;}
	.st13{fill:none;stroke:#201E20;stroke-width:3;stroke-miterlimit:10;}
	.st14{fill:none;stroke:#201E20;stroke-miterlimit:10;}
	.st15{fill:#FFFFFF;}
	.st16{fill:none;}
	.st17{fill:#FFFFFF;stroke:#000000;stroke-miterlimit:10;}
</style>
<g>
	<g>
		<g>
			<g>
				<path class="st5" d="M33.3,82.5v43.4H21V96.5h-4.6l4.6-14v-0.1l4.8-14.4H38L33.3,82.5z M46.4,89.2h-13L40.7,68h13l-1.6,4.6h28.6
					V89H68.4v-7.7H49.2L46.4,89.2z M50.8,91.6l-4.7,34.3H34.3L39,91.6H50.8z M52.8,85.6h12.3v40.3H48v-8.7h4.8V85.6z M82.1,125.9
					H70.5l-3.3-34.4h11.6L82.1,125.9z"/>
				<path class="st5" d="M82.1,135.9H70.5c-0.9,0-1.8-0.1-2.7-0.4c-0.9,0.2-1.8,0.4-2.7,0.4H48c-0.3,0-0.7,0-1,0c-0.3,0-0.6,0-1,0
					H34.3c-0.2,0-0.4,0-0.5,0c-0.2,0-0.4,0-0.5,0H21c-5.5,0-10-4.5-10-10v-21c-1.1-0.7-2-1.5-2.7-2.6c-1.9-2.6-2.4-6-1.4-9l4.4-13.4
					c0.1-0.2,0.1-0.4,0.2-0.6l4.8-14.4c1.4-4.1,5.2-6.9,9.5-6.9H38c0.4,0,0.7,0,1.1,0.1c0.5-0.1,1.1-0.1,1.6-0.1h13
					c3.2,0,6.3,1.6,8.1,4.2c0.1,0.1,0.2,0.3,0.3,0.4h18.5c5.5,0,10,4.5,10,10V89c0,1.9-0.5,3.7-1.5,5.3l2.9,30.7
					c0.3,2.8-0.7,5.6-2.6,7.7C87.6,134.7,85,135.9,82.1,135.9z"/>
			</g>
			<g>
				<path class="st5" d="M137.6,112.1H90.6v-8.7h46.9V112.1z M153.3,89.7v36.2h-39.1v-8.7H141V98.4H94.2l1.4-30H108l-0.3,5.4h45.2
					v8.7h-45.6l-0.4,7.3H153.3z"/>
				<path class="st5" d="M153.3,135.8h-39.1c-5.5,0-10-4.5-10-10v-3.7H90.6c-5.5,0-10-4.5-10-10v-8.7c0-3.2,1.5-6,3.7-7.8l1.3-27.8
					c0.3-5.3,4.7-9.5,10-9.5H108c2.7,0,5.4,1.1,7.3,3.1c0.6,0.7,1.2,1.4,1.6,2.2h36.1c5.5,0,10,4.5,10,10v8.7c0,1.1-0.2,2.1-0.5,3.1
					c0.6,1.3,0.9,2.7,0.9,4.2v36.2C163.3,131.4,158.8,135.8,153.3,135.8z"/>
			</g>
			<g>
				<path class="st5" d="M197.6,100.7l-18.1,25.4h-15.1l18.1-25.4h-18.2V92H188V79.1h-21.3v-8.7h55.7v8.7h-22.1V92h24.6v8.7H197.6z
					 M226.2,125.8h-13.8l-12-23.6h13.8L226.2,125.8z"/>
				<path class="st5" d="M179.5,136.1h-15.1c-3.7,0-7.2-2.1-8.9-5.4c-1.7-3.3-1.4-7.3,0.7-10.4l6.9-9.6c-5-0.6-8.9-4.8-8.9-9.9V92
					c0-3.2,1.5-6.1,3.9-7.9c-0.9-1.5-1.4-3.2-1.4-5v-8.7c0-5.5,4.5-10,10-10h55.7c5.5,0,10,4.5,10,10v8.7c0,1.9-0.5,3.6-1.4,5.1
					c2.3,1.8,3.8,4.7,3.8,7.9v8.7c0,4-2.4,7.5-5.8,9.1l5.9,11.6c1.6,3.1,1.4,6.8-0.4,9.8c-1.8,3-5,4.8-8.5,4.8h-13.8
					c-3.8,0-7.2-2.1-8.9-5.5l-6.1-12.1l-9.6,13.5C185.8,134.5,182.7,136.1,179.5,136.1z"/>
			</g>
			<g>
				<path class="st5" d="M242,90.4l-9.5-0.1l11.4-22.4l12.9,0.1l-5.4,10.8h2.9V98H242V90.4z M298.8,112.8h-26.5v13.2h-12.3v-13.2
					h-25.7v-8.7h25.7v-5h12.3v5h26.5V112.8z M267.8,89.4l-10.2,3.5v-9.7l10.2-3.6V68.1h12.3v7.2l17.8-6.4v10.1l-17.8,6.2v4.2h18V98
					h-30.3V89.4z"/>
				<path class="st5" d="M272.4,135.9h-12.3c-5.5,0-10-4.5-10-10v-3.2h-15.7c-5.5,0-10-4.5-10-10v-8.7c0-2.2,0.7-4.3,1.9-5.9
					c-0.9-0.7-1.7-1.6-2.3-2.6c-1.8-3-1.9-6.6-0.4-9.7L235,63.4c1.7-3.4,5.2-5.5,8.9-5.5c0,0,0.1,0,0.1,0l12.9,0.1
					c1.9,0,3.8,0.6,5.4,1.6c1.6-1,3.5-1.6,5.5-1.6h12.3c3.2,0,6,1.5,7.8,3.7l6.6-2.4c3.1-1.1,6.5-0.6,9.1,1.2
					c2.7,1.9,4.2,4.9,4.2,8.2v10.1c0,1.8-0.5,3.5-1.4,5c1,1.6,1.6,3.4,1.6,5.4V98c0,0.7-0.1,1.3-0.2,1.9c0.6,1.3,0.9,2.7,0.9,4.2
					v8.7c0,5.5-4.5,10-10,10h-16.5v3.2C282.4,131.4,277.9,135.9,272.4,135.9z"/>
			</g>
			<g>
				<path class="st5" d="M325.1,71.4h9.9v54.5h-28.4V71.4h5.9l0.7-3.3h12.6L325.1,71.4z M323,80.1h-4.3v13.7h4.3V80.1z M323,117.2
					v-14.8h-4.3v14.8H323z M370.2,73.4V126h-22.4v-8.7h10.1V82.1h-8.8l-1.2,6.2h-12.2l3.8-20.3h12.2l-1,5.4H370.2z M353.8,113.4H343
					L338.8,91h10.8L353.8,113.4z"/>
				<path class="st5" d="M370.2,136h-22.4c-2.5,0-4.7-0.9-6.4-2.4c-1.7,1.4-3.9,2.3-6.4,2.3h-28.4c-5.5,0-10-4.5-10-10V71.4
					c0-5.2,4-9.5,9.1-10c1.8-2.1,4.5-3.4,7.5-3.4h12.6c2.6,0,5,1,6.9,2.7c1.8-1.7,4.2-2.7,6.9-2.7h12.2c3,0,5.8,1.3,7.7,3.6
					c0.4,0.5,0.8,1.1,1.2,1.7h9.6c5.5,0,10,4.5,10,10V126C380.2,131.5,375.8,136,370.2,136z"/>
			</g>
		</g>
		<g>
			<g>
				<path class="st5" d="M19.3,146h60.4v55.4H19.3V146z M67.4,192.8v-38H31.6v38H67.4z M35.4,158.6h28.6v30.2H35.4V158.6z
					 M53.1,181.3v-15.2h-6.9v15.2H53.1z"/>
				<path class="st5" d="M79.7,211.4H19.3c-5.5,0-10-4.5-10-10V146c0-5.5,4.5-10,10-10h60.4c5.5,0,10,4.5,10,10v55.4
					C89.7,207,85.2,211.4,79.7,211.4z"/>
			</g>
			<g>
				<path class="st5" d="M90.2,154.3h5.1l-1.2,30.2h-5.1L90.2,154.3z M96.8,143.7h12.3v57.7H96.8V143.7z M116.1,182.2h-4.8
					l-1.2-26.5h4.8L116.1,182.2z M154.8,192.8v8.7h-40.2v-8.7l24.6-38.3h-23.7v-8.7h38.2v8.7L129,192.8H154.8z"/>
				<path class="st5" d="M154.8,211.4h-40.2c-1,0-2-0.1-2.9-0.4c-0.8,0.2-1.7,0.3-2.6,0.3H96.8c-5.5,0-10-4.5-10-10v-7.2
					c-1.8-0.4-3.5-1.4-4.9-2.8c-1.9-2-2.9-4.6-2.8-7.3l1.2-30.2c0.2-4.1,2.8-7.6,6.5-9v-1.3c0-5.5,4.5-10,10-10h12.3
					c2.3,0,4.4,0.8,6.1,2.1c0.1,0,0.2,0,0.2,0h38.2c5.5,0,10,4.5,10,10v8.7c0,1.9-0.5,3.8-1.6,5.4l-14.7,22.9h7.5
					c5.5,0,10,4.5,10,10v8.7C164.8,207,160.3,211.4,154.8,211.4z"/>
			</g>
			<g>
				<path class="st5" d="M177.2,159.1h-16l12.3-15.5h41.3l12.3,15.5h-16l-3-3.8v4h-27.8v-4.2L177.2,159.1z M223,193.5h3.6v8h-65.1
					v-8h3.3v-13.4H223V193.5z M166,161.4h57.1v16.9H166V161.4z M177,193.5h3.8v-5.4H177V193.5z M178.3,168.5v2.5h32.5v-2.5H178.3z
					 M183.8,150.8l-1.7,2h24.1l-1.7-2H183.8z M195.8,188.1h-3.8v5.4h3.8V188.1z M210.9,188.1h-3.8v5.4h3.8V188.1z"/>
				<path class="st5" d="M226.7,211.4h-65.1c-5.5,0-10-4.5-10-10v-8c0-3,1.3-5.6,3.3-7.4v-5.9c0-1.7,0.4-3.3,1.2-4.7v-7.8
					c-1.6-1-3-2.4-3.9-4.2c-1.7-3.5-1.2-7.6,1.2-10.6l12.3-15.5c1.9-2.4,4.8-3.8,7.8-3.8h41.3c3,0,5.9,1.4,7.8,3.8l12.3,15.5
					c2.4,3,2.8,7.1,1.2,10.6c-0.7,1.4-1.7,2.6-2.9,3.6v11.2c0,0.6,0,1.2-0.1,1.7c0,0.1,0,0.1,0,0.2v5.7c2.2,1.8,3.6,4.6,3.6,7.7v8
					C236.7,207,232.2,211.4,226.7,211.4z"/>
			</g>
			<g>
				<path class="st5" d="M299.8,175h-26.2v26.3h-21.3v-8.7h9V175h-28.1v-8.7h28.1v-4.1l10.4-9.3h-29.7v-8.7h49v6.4l-17.4,14.4v1.3
					h26.2V175z"/>
				<path class="st5" d="M273.6,211.4h-21.3c-5.5,0-10-4.5-10-10v-8.7c0-3.1,1.4-5.8,3.6-7.6h-12.6c-5.5,0-10-4.5-10-10v-8.7
					c0-5.3,4.2-9.7,9.4-10c-0.4-1.1-0.6-2.2-0.6-3.4v-8.7c0-5.5,4.5-10,10-10h49c5.5,0,10,4.5,10,10v6.4c0,2.1-0.6,4-1.8,5.7h0.5
					c5.5,0,10,4.5,10,10v8.7c0,5.5-4.5,10-10,10h-16.2v16.3C283.6,206.9,279.1,211.4,273.6,211.4z"/>
			</g>
		</g>
		<g>
			<g>
				<path class="st5" d="M26.6,43.2H44v6.7H18.9V29.7l17.2-1.8l-0.2-6.8H19.5v-6.7H44L44.5,34l-17.9,1.8V43.2z"/>
				<path class="st5" d="M44,59.9H18.9c-5.5,0-10-4.5-10-10V29.7c0-1.8,0.5-3.4,1.3-4.9c-0.5-1.1-0.7-2.4-0.7-3.7v-6.7
					c0-5.5,4.5-10,10-10H44c5.4,0,9.9,4.3,10,9.7l0.5,19.7c0.1,1.9-0.5,3.8-1.4,5.4c0.6,1.3,0.9,2.6,0.9,4.1v6.7
					C54,55.5,49.5,59.9,44,59.9z"/>
			</g>
			<g>
				<path class="st5" d="M75.4,50.4H49.7l0.8-36h24.2L75.4,50.4z M67,43.7l-0.5-22.6h-8l-0.5,22.6H67z"/>
				<path class="st5" d="M75.4,60.4H49.7c-2.7,0-5.3-1.1-7.1-3c-1.9-1.9-2.9-4.5-2.9-7.2l0.8-36c0.1-5.4,4.6-9.8,10-9.8h24.2
					c5.4,0,9.9,4.3,10,9.8l0.8,36c0.1,2.7-1,5.3-2.9,7.2C80.7,59.3,78.1,60.4,75.4,60.4z"/>
			</g>
			<g>
				<path class="st5" d="M88.3,43.2h17.4v6.7H80.6V29.7l17.2-1.8l-0.2-6.8H81.1v-6.7h24.6l0.5,19.7l-17.9,1.8V43.2z"/>
				<path class="st5" d="M105.7,59.9H80.6c-5.5,0-10-4.5-10-10V29.7c0-1.8,0.5-3.4,1.3-4.9c-0.5-1.1-0.7-2.4-0.7-3.7v-6.7
					c0-5.5,4.5-10,10-10h24.6c5.4,0,9.9,4.3,10,9.7l0.5,19.7c0.1,1.9-0.5,3.8-1.4,5.4c0.6,1.3,0.9,2.6,0.9,4.1v6.7
					C115.7,55.5,111.2,59.9,105.7,59.9z"/>
			</g>
			<g>
				<path class="st5" d="M137.1,50.4h-25.7l0.8-36h24.2L137.1,50.4z M128.7,43.7l-0.5-22.6h-8l-0.5,22.6H128.7z"/>
				<path class="st5" d="M137.1,60.4h-25.7c-2.7,0-5.3-1.1-7.1-3c-1.9-1.9-2.9-4.5-2.9-7.2l0.8-36c0.1-5.4,4.6-9.8,10-9.8h24.2
					c5.4,0,9.9,4.3,10,9.8l0.8,36c0.1,2.7-1,5.3-2.9,7.2C142.4,59.3,139.8,60.4,137.1,60.4z"/>
			</g>
		</g>
	</g>
	<g>
		<g>
			<path class="st15" d="M33.3,82.5v43.4H21V96.5h-4.6l4.6-14v-0.1l4.8-14.4H38L33.3,82.5z M46.4,89.2h-13L40.7,68h13l-1.6,4.6h28.6
				V89H68.4v-7.7H49.2L46.4,89.2z M50.8,91.6l-4.7,34.3H34.3L39,91.6H50.8z M52.8,85.6h12.3v40.3H48v-8.7h4.8V85.6z M82.1,125.9
				H70.5l-3.3-34.4h11.6L82.1,125.9z"/>
			<path class="st15" d="M137.6,112.1H90.6v-8.7h46.9V112.1z M153.3,89.7v36.2h-39.1v-8.7H141V98.4H94.2l1.4-30H108l-0.3,5.4h45.2
				v8.7h-45.6l-0.4,7.3H153.3z"/>
			<path class="st15" d="M197.6,100.7l-18.1,25.4h-15.1l18.1-25.4h-18.2V92H188V79.1h-21.3v-8.7h55.7v8.7h-22.1V92h24.6v8.7H197.6z
				 M226.2,125.8h-13.8l-12-23.6h13.8L226.2,125.8z"/>
			<path class="st15" d="M242,90.4l-9.5-0.1l11.4-22.4l12.9,0.1l-5.4,10.8h2.9V98H242V90.4z M298.8,112.8h-26.5v13.2h-12.3v-13.2
				h-25.7v-8.7h25.7v-5h12.3v5h26.5V112.8z M267.8,89.4l-10.2,3.5v-9.7l10.2-3.6V68.1h12.3v7.2l17.8-6.4v10.1l-17.8,6.2v4.2h18V98
				h-30.3V89.4z"/>
			<path class="st15" d="M325.1,71.4h9.9v54.5h-28.4V71.4h5.9l0.7-3.3h12.6L325.1,71.4z M323,80.1h-4.3v13.7h4.3V80.1z M323,117.2
				v-14.8h-4.3v14.8H323z M370.2,73.4V126h-22.4v-8.7h10.1V82.1h-8.8l-1.2,6.2h-12.2l3.8-20.3h12.2l-1,5.4H370.2z M353.8,113.4H343
				L338.8,91h10.8L353.8,113.4z"/>
		</g>
		<g>
			<g>
				<path class="st15" d="M19.3,146h60.4v55.4H19.3V146z M67.4,192.8v-38H31.6v38H67.4z M35.4,158.6h28.6v30.2H35.4V158.6z
					 M53.1,181.3v-15.2h-6.9v15.2H53.1z"/>
				<path class="st15" d="M90.2,154.3h5.1l-1.2,30.2h-5.1L90.2,154.3z M96.8,143.7h12.3v57.7H96.8V143.7z M116.1,182.2h-4.8
					l-1.2-26.5h4.8L116.1,182.2z M154.8,192.8v8.7h-40.2v-8.7l24.6-38.3h-23.7v-8.7h38.2v8.7L129,192.8H154.8z"/>
				<path class="st15" d="M177.2,159.1h-16l12.3-15.5h41.3l12.3,15.5h-16l-3-3.8v4h-27.8v-4.2L177.2,159.1z M223,193.5h3.6v8h-65.1
					v-8h3.3v-13.4H223V193.5z M166,161.4h57.1v16.9H166V161.4z M177,193.5h3.8v-5.4H177V193.5z M178.3,168.5v2.5h32.5v-2.5H178.3z
					 M183.8,150.8l-1.7,2h24.1l-1.7-2H183.8z M195.8,188.1h-3.8v5.4h3.8V188.1z M210.9,188.1h-3.8v5.4h3.8V188.1z"/>
				<path class="st15" d="M299.8,175h-26.2v26.3h-21.3v-8.7h9V175h-28.1v-8.7h28.1v-4.1l10.4-9.3h-29.7v-8.7h49v6.4l-17.4,14.4v1.3
					h26.2V175z"/>
			</g>
		</g>
		<g>
			<g>
				<path class="st15" d="M26.6,43.2H44v6.7H18.9V29.7l17.2-1.8l-0.2-6.8H19.5v-6.7H44L44.5,34l-17.9,1.8V43.2z"/>
				<path class="st15" d="M75.4,50.4H49.7l0.8-36h24.2L75.4,50.4z M67,43.7l-0.5-22.6h-8l-0.5,22.6H67z"/>
				<path class="st15" d="M88.3,43.2h17.4v6.7H80.6V29.7l17.2-1.8l-0.2-6.8H81.1v-6.7h24.6l0.5,19.7l-17.9,1.8V43.2z"/>
				<path class="st15" d="M137.1,50.4h-25.7l0.8-36h24.2L137.1,50.4z M128.7,43.7l-0.5-22.6h-8l-0.5,22.6H128.7z"/>
			</g>
		</g>
	</g>
</g>
</svg>
