<svg id="图层_1" data-name="图层 1" xmlns="http://www.w3.org/2000/svg" viewBox="0 0 414 896"><defs><style>.cls-1,.cls-10{fill:#fff;}.cls-2{fill:#dddfe0;}.cls-3{fill:#86cbd2;}.cls-4{fill:#59b2b5;}.cls-5{fill:#9ba1a8;}.cls-10,.cls-5,.cls-8{stroke:#211e20;}.cls-10,.cls-11,.cls-12,.cls-5,.cls-8{stroke-miterlimit:10;}.cls-10,.cls-11,.cls-12,.cls-13,.cls-15,.cls-5,.cls-7,.cls-8,.cls-9{stroke-width:3px;}.cls-6{fill:#a4a4a4;}.cls-7{fill:#f7d9b5;}.cls-15,.cls-7,.cls-9{stroke:#040000;}.cls-13,.cls-15,.cls-7,.cls-9{stroke-linecap:round;stroke-linejoin:round;}.cls-15,.cls-8{fill:none;}.cls-9{fill:#cd584e;}.cls-11{fill:#363b46;}.cls-11,.cls-12{stroke:#1e1c1e;}.cls-12{fill:#f9bf3d;}.cls-13{fill:#eb6b5b;stroke:#1f1d1f;}.cls-14{fill:#929292;}</style></defs><title>2020年工时账单（测试）</title><rect class="cls-1" x="-0.00001" y="640.73696" width="54.26878" height="44.11409"/><polygon class="cls-2" points="54.269 653.555 38.72 683.532 0 683.532 0 641.842 54.269 641.842 54.269 653.555"/><polygon class="cls-3" points="56.032 641.842 86.1 686.055 86.1 850.542 56.032 807.746 56.032 641.842"/><polygon class="cls-4" points="54.269 642.43 84.014 684.851 84.336 746.192 54.269 807.746 54.269 642.43"/><rect class="cls-5" x="84.3365" y="684.85105" width="167.00923" height="167.00923" transform="translate(335.68222 1536.71132) rotate(-180)"/><rect class="cls-6" x="251.34572" y="44.11409" width="162.65427" height="162.27178"/><polygon class="cls-7" points="251.346 683.532 221.278 641.842 0 641.842 0 44.114 251.346 44.114 251.346 683.532"/><polygon class="cls-2" points="221.278 641.842 251.346 686.055 251.346 850.542 221.278 807.746 221.278 641.842"/><rect class="cls-8" x="54.26877" y="640.73696" width="167.00923" height="167.00923" transform="translate(275.54677 1448.48314) rotate(-180)"/><rect class="cls-9" x="-0.00001" width="251.34573" height="44.11409"/><rect class="cls-10" x="251.34572" width="162.65427" height="44.11409" transform="translate(665.34572 44.11409) rotate(180)"/><polygon class="cls-11" points="251.346 574.722 251.346 851.675 84.337 851.675 54.269 806.427 54.269 895.999 414 895.999 414 573.25 414 318.972 414 206.281 251.346 206.281 251.346 574.722"/><line class="cls-8" x1="251.34572" x2="251.34572" y2="274.055"/><line class="cls-8" x1="54.26877" y1="639.41821" x2="54.26877" y2="896"/><line class="cls-8" x1="251.34572" y1="573.24995" x2="251.34572" y2="683.5323"/><polygon class="cls-10" points="54.269 640.737 84.014 684.851 221.278 684.851 221.278 640.737 54.269 640.737"/><polyline class="cls-8" points="221.601 640.656 251.346 684.851 221.278 684.851"/><line class="cls-8" x1="54.26877" y1="807.66533" x2="84.01389" y2="851.86027"/><line class="cls-8" x1="221.60061" y1="807.66533" x2="251.34572" y2="851.86027"/><rect class="cls-12" x="-0.00001" y="851.86027" width="54.26878" height="44.11409"/><rect class="cls-8" x="-0.00001" y="640.73696" width="54.26878" height="44.11409"/><line class="cls-8" x1="251.34572" y1="679.78286" x2="251.34572" y2="850.54153"/><rect class="cls-13" x="-0.00001" y="684.85105" width="54.26878" height="167.00923"/><polygon class="cls-14" points="359.36 206.281 414 206.281 413.202 80.388 406.11 80.388 359.36 206.281"/><polygon class="cls-14" points="399.233 44.114 414 44.114 413.202 80.388 406.11 80.388 399.233 44.114"/><polyline class="cls-15" points="251.346 44.114 279.027 80.388 279.027 206.281"/><line class="cls-15" x1="279.02666" y1="80.38833" x2="413.20224" y2="80.38833"/><line class="cls-8" x1="-0.00001" y1="44.11409" x2="413.99999" y2="44.11409"/><rect class="cls-8" x="251.34572" y="44.11409" width="162.65427" height="162.27178"/></svg>