<svg id="图层_1" data-name="图层 1" xmlns="http://www.w3.org/2000/svg" viewBox="0 0 409.66667 409.66667"><defs><style>.cls-1{fill:#eb6b5b;}.cls-2,.cls-4{fill:#cd584e;}.cls-3,.cls-7{fill:none;}.cls-3,.cls-4{stroke:#040000;stroke-linecap:round;stroke-linejoin:round;}.cls-3,.cls-4,.cls-7{stroke-width:3px;}.cls-5{fill:#ad413d;}.cls-6{fill:#fff5e0;}.cls-7{stroke:#211e20;stroke-miterlimit:10;}</style></defs><title>2020年工时账单（测试）</title><polygon class="cls-1" points="373.666 345.97 7.666 345.97 37.411 390.165 403.411 390.165 373.666 345.97"/><polygon class="cls-2" points="7.666 345.97 309.166 345.97 242.457 390.165 37.411 390.165 7.666 345.97"/><polygon class="cls-3" points="375.04 345.97 9.04 345.97 38.785 390.165 404.785 390.165 375.04 345.97"/><polygon class="cls-4" points="373.666 345.97 373.666 15.635 403.411 60.552 403.411 390.165 373.666 345.97"/><polygon class="cls-5" points="374.078 17.444 402.408 59.686 402.508 84.35 374.078 227.042 374.078 17.444"/><polygon class="cls-3" points="373.666 345.97 373.666 15.808 403.411 60.725 403.411 390.165 373.666 345.97"/><rect class="cls-6" x="9.04001" y="15.6353" width="366.00801" height="330.83452"/><rect class="cls-7" x="9.04803" y="15.6353" width="366" height="330.33452"/></svg>