<svg xmlns="http://www.w3.org/2000/svg" viewBox="0 0 453 703.73438"><defs><style>.cls-1{isolation:isolate;}.cls-2{fill:#c89a74;opacity:0.3;}.cls-11,.cls-2{mix-blend-mode:multiply;}.cls-3{fill:#222935;opacity:0.7;}.cls-4{fill:#86cbd2;}.cls-11,.cls-5{fill:#59b2b5;}.cls-10,.cls-6{fill:none;}.cls-6{stroke:#211e20;}.cls-6,.cls-8{stroke-miterlimit:10;}.cls-10,.cls-6,.cls-7,.cls-8{stroke-width:3px;}.cls-7{fill:#eb6b5b;stroke:#1f1d1f;}.cls-10,.cls-7{stroke-linecap:round;stroke-linejoin:round;}.cls-8{fill:#f9bf3d;stroke:#040000;}.cls-9{fill:#b8d380;}.cls-10{stroke:#1e1c1e;}.cls-11{opacity:0.5;}</style></defs><title>2020年工时账单（测试）</title><g class="cls-1"><g id="图层_1" data-name="图层 1"><polygon class="cls-2" points="377.649 17.211 408.201 12.765 413.385 43.776 426.576 45.265 426.218 88.765 417.565 87.958 377.076 40.14 377.649 17.211"/><polygon class="cls-3" points="426.218 676.015 426.218 611.765 393.451 618.265 391.489 663.578 391.443 663.541 389.136 692.609 402.951 692.609 403.831 676.015 426.218 676.015"/><polygon class="cls-4" points="378.589 685.859 11.341 657.924 38.747 22.639 422.731 48.138 378.589 685.859"/><polygon class="cls-5" points="37.933 41.511 160.451 32.015 179.242 33.103 37.551 50.362 37.933 41.511"/><polygon class="cls-6" points="378.589 685.859 11.341 657.924 38.747 22.639 422.731 48.138 378.589 685.859"/><rect class="cls-7" x="11.70055" y="186.84645" width="24.66667" height="376.23625"/><polygon class="cls-8" points="11.383 243.164 61.78 656.888 425.341 612.601 425.481 409.881 376.655 9.055 11.341 53.555 11.383 243.164"/><polygon class="cls-9" points="11.311 512.396 47.332 58.572 425.568 88.594 425.357 236.266 389.136 692.61 11.341 662.623 11.311 512.396"/><polygon class="cls-10" points="11.311 512.396 47.332 58.572 425.568 88.594 425.357 236.266 389.136 692.61 11.341 662.623 11.311 512.396"/><polygon class="cls-11" points="380.867 44.765 422.731 48.138 419.328 88.098 413.79 87.659 384.455 85.33 382.034 55.265 380.867 44.765"/></g></g></svg>