<svg id="图层_1" data-name="图层 1" xmlns="http://www.w3.org/2000/svg" viewBox="0 0 414.87698 895.99797"><defs><style>.cls-1{fill:#f9bf3d;}.cls-2{fill:#dddfe0;}.cls-3{fill:#363b46;}.cls-4{fill:#86cbd2;}.cls-5{fill:#eb6b5b;}.cls-6{fill:none;stroke:#040000;stroke-linecap:round;stroke-linejoin:round;stroke-width:3px;}</style></defs><title>2020年工时账单（测试）</title><rect class="cls-1" x="0.87725" y="-0.00101" width="414" height="766.58563"/><rect class="cls-2" x="275.57226" y="511.88868" width="70.30498" height="128.03677"/><rect class="cls-2" x="138.87725" y="511.88868" width="206.99987" height="64.01839"/><rect class="cls-3" x="69.87725" y="63.75998" width="276" height="64.01839"/><rect class="cls-1" x="0.87725" y="639.92545" width="207" height="128.03677"/><rect class="cls-4" x="0.87725" y="769.26311" width="207" height="126.73587"/><rect class="cls-2" x="276.87725" y="639.92545" width="69" height="256.07354"/><rect class="cls-2" x="69.87725" y="383.22293" width="69" height="383.60775"/><rect class="cls-3" x="138.87725" y="128.9099" width="138" height="253.81048"/><rect class="cls-2" x="276.87725" y="386.11497" width="69" height="253.81048"/><rect class="cls-5" x="207.87725" y="767.96222" width="69.71766" height="128.03677" transform="translate(485.47215 1663.9612) rotate(180)"/><rect class="cls-3" x="346.59477" y="639.92545" width="68.28221" height="256.07253"/><line class="cls-6" x1="69.87725" y1="-0.00101" x2="69.87725" y2="895.99797"/><line class="cls-6" x1="138.87725" y1="-0.00101" x2="138.87725" y2="895.99797"/><line class="cls-6" x1="207.87725" y1="-0.00101" x2="207.87725" y2="895.99797"/><line class="cls-6" x1="276.87725" y1="-0.00101" x2="276.87725" y2="895.99797"/><line class="cls-6" x1="345.87725" y1="-0.00101" x2="345.87725" y2="895.99797"/><line class="cls-6" x1="414.87724" y1="-0.25841" x2="0.87725" y2="-0.25841"/><line class="cls-6" x1="414.87724" y1="63.75998" x2="0.87725" y2="63.75998"/><line class="cls-6" x1="414.87724" y1="127.77837" x2="0.87725" y2="127.77837"/><line class="cls-6" x1="414.87724" y1="191.79675" x2="0.87725" y2="191.79675"/><line class="cls-6" x1="414.87724" y1="255.81514" x2="0.87725" y2="255.81514"/><line class="cls-6" x1="414.87724" y1="319.83352" x2="0.87725" y2="319.83352"/><line class="cls-6" x1="414.87724" y1="383.85191" x2="0.87725" y2="383.85191"/><line class="cls-6" x1="414.87724" y1="447.87029" x2="0.87725" y2="447.87029"/><line class="cls-6" x1="414.87724" y1="511.88868" x2="0.87725" y2="511.88868"/><line class="cls-6" x1="414.87724" y1="575.90706" x2="0.87725" y2="575.90706"/><line class="cls-6" x1="414.87724" y1="639.92545" x2="0.87725" y2="639.92545"/><line class="cls-6" x1="414.87724" y1="703.94383" x2="0.87725" y2="703.94383"/><line class="cls-6" x1="414.87724" y1="767.96222" x2="0.87725" y2="767.96222"/><line class="cls-6" x1="414.87724" y1="831.9806" x2="0.87725" y2="831.9806"/><line class="cls-6" x1="414.87724" y1="895.99899" x2="0.87725" y2="895.99899"/><line class="cls-6" y2="895.99899"/><line class="cls-6" x1="414" x2="414" y2="895.99899"/></svg>