<svg xmlns="http://www.w3.org/2000/svg" viewBox="0 0 413.98438 896.36083"><defs><style>.cls-1{isolation:isolate;}.cls-2{fill:#fff;}.cls-12,.cls-2,.cls-3,.cls-5,.cls-7{stroke:#211e20;}.cls-12,.cls-2,.cls-3,.cls-4,.cls-5,.cls-6,.cls-7{stroke-miterlimit:10;}.cls-11,.cls-12,.cls-13,.cls-15,.cls-2,.cls-3,.cls-4,.cls-5,.cls-6,.cls-7,.cls-8{stroke-width:3px;}.cls-3{fill:#9ba1a8;}.cls-4{fill:#f9bf3d;}.cls-11,.cls-13,.cls-15,.cls-4,.cls-8{stroke:#040000;}.cls-5{fill:#a4a4a4;}.cls-14,.cls-16,.cls-6{fill:#363b46;}.cls-6{stroke:#1e1c1e;}.cls-7{fill:#86cbd2;}.cls-8{fill:#eb6b5b;}.cls-11,.cls-13,.cls-15,.cls-8{stroke-linecap:round;stroke-linejoin:round;}.cls-9{fill:#ad413d;opacity:0.6;}.cls-10{fill:#c89a74;mix-blend-mode:multiply;}.cls-10,.cls-16{opacity:0.3;}.cls-11{fill:#cd584e;}.cls-12{fill:#fdf3df;}.cls-13{fill:#556070;}.cls-14{opacity:0.5;}.cls-15{fill:none;}</style></defs><title>2020年工时账单（测试）</title><g class="cls-1"><g id="图层_1" data-name="图层 1"><rect class="cls-2" y="-0.87196" width="414" height="895.97436"/><polygon class="cls-3" points="414 169.183 399.189 148.252 399.189 44.488 414 44.488 414 169.183"/><rect class="cls-4" x="49.33954" y="43.92804" width="349.82709" height="330.7194"/><rect class="cls-5" y="-0.87196" width="414" height="44.8"/><rect class="cls-6" y="786.65748" width="414" height="108.44493"/><rect class="cls-7" x="369.2" y="-0.87196" width="44.8" height="44.8"/><polygon class="cls-8" points="399.167 478.971 49.34 478.971 77.77 521.213 427.597 521.213 399.167 478.971"/><polygon class="cls-9" points="399.167 478.971 70.693 478.971 86.986 501.794 414 501.794 399.167 478.971"/><polygon class="cls-10" points="414 59.683 194.096 59.683 102.081 148.252 399.519 148.252 414 169.183 414 59.683"/><rect class="cls-3" x="76.12744" y="501.7943" width="337.85694" height="284.86317"/><line class="cls-11" x1="364.78904" y1="97.11285" x2="407.9225" y2="161.18304"/><line class="cls-12" x1="14.1722" y1="426.28113" x2="64.985" y2="501.7943"/><rect class="cls-13" x="48.30563" y="148.25169" width="350.861" height="330.7194"/><polygon class="cls-14" points="76.127 478.85 399.167 478.971 399.519 148.252 317.693 148.252 76.127 478.85"/><line class="cls-15" x1="354.6946" y1="413.41184" x2="399.16663" y2="479.47035"/><rect class="cls-15" x="48.30563" y="148.25169" width="350.861" height="330.7194"/><rect class="cls-12" x="14.1722" y="96.69318" width="350.86097" height="330.7194"/><polygon class="cls-8" points="399.167 478.971 427.497 521.213 427.497 190.494 399.167 148.252 399.167 478.971"/><polygon class="cls-9" points="399.167 148.252 427.497 190.494 427.597 414.095 399.167 481.271 399.167 148.252"/><polygon class="cls-15" points="399.167 478.971 427.497 521.213 427.497 190.494 399.167 148.252 399.167 478.971"/><polygon class="cls-16" points="78.898 501.794 314.939 832.452 414.165 832.452 413.835 501.794 78.898 501.794"/></g></g></svg>