<svg id="图层_1" data-name="图层 1" xmlns="http://www.w3.org/2000/svg" viewBox="0 0 404.30864 323.25099"><defs><style>.cls-1{fill:#86cbd2;}.cls-2{fill:#59b2b5;}.cls-3,.cls-6{fill:none;}.cls-3{stroke:#211e20;}.cls-3,.cls-5,.cls-6{stroke-miterlimit:10;stroke-width:3px;}.cls-4,.cls-5{fill:#ebebeb;}.cls-5,.cls-6{stroke:#060001;}.cls-7{fill:#363b46;opacity:0.1;}</style></defs><title>2020年工时账单（测试）</title><polygon class="cls-1" points="392.49 315.4 392.49 135.086 265.85 50.298 32.759 314.584 392.49 315.4"/><polygon class="cls-2" points="113.517 235.013 367.85 200.3 304.85 104.599 269.183 76.847 113.85 231.831 113.517 235.013"/><line class="cls-2" x1="122.99255" y1="259.28004" x2="108.84993" y2="227.96499"/><polygon class="cls-3" points="392.49 315.4 392.49 135.086 265.85 50.298 32.759 314.584 392.49 315.4"/><polygon class="cls-4" points="392.49 162.231 273.09 86.017 7.984 314.584 392.49 314.584 392.49 162.231"/><polyline class="cls-5" points="392.49 279.004 227.896 173.941 392.49 279.004"/><line class="cls-5" x1="375.49856" y1="316.71678" x2="195.53327" y2="201.84329"/><line class="cls-5" x1="297.36057" y1="315.39965" x2="163.17096" y2="229.74515"/><line class="cls-5" x1="219.57599" y1="314.30797" x2="130.80866" y2="257.64701"/><line class="cls-5" x1="144.71836" y1="314.30797" x2="97.76592" y2="284.33778"/><path class="cls-5" d="M314.57172,189.958l-60.47815-38.60376Z"/><polygon class="cls-6" points="392.49 162.231 273.09 86.017 7.984 314.584 392.49 314.584 392.49 162.231"/><polygon class="cls-7" points="194.842 314.584 69.78 312.68 10.42 313.266 156.468 186.565 194.842 314.584"/></svg>