<svg xmlns="http://www.w3.org/2000/svg" viewBox="0 0 413.98438 896.36083"><defs><style>.cls-1{isolation:isolate;}.cls-2{fill:#fdf3df;}.cls-3,.cls-8{fill:#c89a74;mix-blend-mode:multiply;}.cls-3{opacity:0.2;}.cls-4{fill:#eb6b5b;}.cls-5{fill:#cd584e;}.cls-6,.cls-9{fill:none;stroke-miterlimit:10;stroke-width:3px;}.cls-6{stroke:#211e20;}.cls-7{fill:#f9bf3d;}.cls-8{opacity:0.3;}.cls-9{stroke:#040000;}</style></defs><title>2020年工时账单（测试）</title><g class="cls-1"><g id="图层_1" data-name="图层 1"><rect class="cls-2" x="-0.00781" y="0.09083" width="414" height="895.97436"/><polygon class="cls-3" points="0.763 44.205 68.825 894.955 0 896.065 0 84.395 0.763 44.205"/><polygon class="cls-4" points="-0.64 90.811 365.72 0.091 -0.64 0.091 -0.64 90.811"/><polygon class="cls-3" points="352.225 3.433 413.36 221.146 413.36 0.091 352.225 -0.167 352.225 3.433"/><polygon class="cls-5" points="0.033 -0.167 78.802 0.091 91.937 67.994 0.22 91.396 0.033 -0.167"/><polygon class="cls-6" points="0 90.811 366.36 0.091 0 0.091 0 90.811"/><polygon class="cls-7" points="-0.078 815.031 414.062 733.195 413.772 896.065 0.062 896.065 -0.078 815.031"/><polygon class="cls-8" points="61.596 802.859 219.229 899.516 59.5 895.479 0.14 896.065 0 815.031 61.596 802.859"/><polygon class="cls-9" points="-0.779 815.031 413.36 733.195 413.07 896.065 -0.64 896.065 -0.779 815.031"/></g></g></svg>