<svg id="图层_1" data-name="图层 1" xmlns="http://www.w3.org/2000/svg" viewBox="0 0 171.3151 190.66667"><defs><style>.cls-1{fill:#b8d380;}.cls-2{fill:#8da95d;}.cls-3{fill:none;stroke:#040000;stroke-miterlimit:10;stroke-width:3px;}</style></defs><title>2020年工时账单（测试）</title><polygon class="cls-1" points="64.891 106.182 41.064 106.182 9.917 185.304 164.436 185.304 164.436 106.182 64.891 106.182"/><polygon class="cls-1" points="164.436 67.031 79.581 67.031 64.891 106.182 164.436 106.182 164.436 67.031"/><polygon class="cls-1" points="164.436 44.69 71.586 44.69 71.586 66.893 79.581 66.893 164.436 66.893 164.436 44.69"/><path class="cls-1" d="M164.436,7.69079H90.38932a36.20205,36.20205,0,0,1-35.59223,29.6241,36.21391,36.21391,0,0,1-9.73728-1.33572v8.7105H164.436Z"/><polygon class="cls-2" points="9.917 185.18 40.023 185.304 47.274 106.285 42.714 106.285 9.917 185.18"/><rect class="cls-2" x="71.58553" y="44.68968" width="92.8505" height="7.82118"/><polygon class="cls-2" points="164.436 44.069 45.06 44.069 45.06 36.469 55.68 41.428 164.436 39.375 164.436 44.069"/><polygon class="cls-2" points="164.436 78.929 75.117 78.929 79.581 67.031 164.436 67.031 164.436 78.929"/><polygon class="cls-3" points="64.891 106.182 41.064 106.182 9.917 185.304 164.436 185.304 164.436 106.182 64.891 106.182"/><polygon class="cls-3" points="164.436 67.031 79.581 67.031 64.891 106.182 164.436 106.182 164.436 67.031"/><polygon class="cls-3" points="164.436 44.69 71.586 44.69 71.586 66.893 79.581 66.893 164.436 66.893 164.436 44.69"/><path class="cls-3" d="M164.436,7.69079H90.38932a36.20205,36.20205,0,0,1-35.59223,29.6241,36.21391,36.21391,0,0,1-9.73728-1.33572v8.7105H164.436Z"/></svg>