<svg xmlns="http://www.w3.org/2000/svg" viewBox="0 0 414 895.99996"><defs><style>.cls-1{isolation:isolate;}.cls-2{fill:#86cbd2;}.cls-3{fill:#59b2b5;}.cls-4{fill:none;}.cls-4,.cls-5,.cls-6{stroke:#211e20;}.cls-10,.cls-4,.cls-5,.cls-6,.cls-7,.cls-8{stroke-miterlimit:10;stroke-width:3px;}.cls-5{fill:#717071;}.cls-6{fill:#fff;}.cls-11,.cls-7{fill:#363b46;}.cls-7{stroke:#1e1c1e;}.cls-8{fill:#f9bf3d;stroke:#040000;}.cls-9{fill:#c89a74;opacity:0.3;mix-blend-mode:multiply;}.cls-10{fill:#f7f7f7;stroke:#060001;}.cls-11{opacity:0.2;}</style></defs><title>2020年工时账单（测试）</title><g class="cls-1"><g id="图层_1" data-name="图层 1"><rect class="cls-2" width="414" height="895.99996"/><polygon class="cls-3" points="273.027 0 0 332.877 0 -0.014 239.102 -0.053 273.027 0"/><polygon class="cls-3" points="1.318 513.13 414 684.948 414 896 0 896 1.265 547.055 1.318 513.13"/><rect class="cls-4" width="414" height="895.99996"/><line class="cls-5" x1="31.02667" y1="90.71997" x2="31.02667" y2="-0.00004"/><rect class="cls-6" y="90.71997" width="91.09146" height="91.09146"/><rect class="cls-7" y="655.61889" width="414" height="244.41223"/><circle class="cls-8" cx="85.12261" cy="101.6378" r="72.19312"/><path class="cls-9" d="M23.48206,101.63776A72.18341,72.18341,0,0,1,90.64979,29.63825c-1.66223-.11444-3.33417-.1936-5.02545-.1936a72.19312,72.19312,0,1,0,0,144.38623c1.69128,0,3.36322-.07916,5.02545-.1936A72.18341,72.18341,0,0,1,23.48206,101.63776Z"/><rect class="cls-10" x="322.90854" y="-0.05281" width="91.09146" height="91.09146"/><path class="cls-6" d="M354.2991,192.52571c0-18.62085-17.26611-33.71582-38.56506-33.71582A42.46359,42.46359,0,0,0,294.88187,164.17a73.95227,73.95227,0,0,0-25.74292-4.54932c-24.46912,0-45.61743,11.51709-55.67285,28.23145a25.88236,25.88236,0,1,0,4.29907,50.05127c11.12366,13.38208,29.98132,22.18359,51.37378,22.18359a72.40838,72.40838,0,0,0,33.27319-7.87866A25.8805,25.8805,0,0,0,339.828,218.8426C348.64651,212.66377,354.2991,203.17439,354.2991,192.52571Z"/><path class="cls-11" d="M210.2742,231.1222a25.88928,25.88928,0,0,1-21.741-2.32764,25.79919,25.79919,0,0,0,28.7522,9.32031A54.2869,54.2869,0,0,1,210.2742,231.1222Z"/><path class="cls-11" d="M354.2991,192.59449c0-10.746-5.75732-20.3103-14.7146-26.48425a30.79658,30.79658,0,0,1,7.22363,19.63428c0,10.64868-5.65259,20.13818-14.47119,26.31689a25.88179,25.88179,0,0,1-37.41577,33.36572,72.40875,72.40875,0,0,1-33.27319,7.87866c-16.39856,0-31.2926-5.18433-42.37036-13.62671,11.27393,12.41187,29.39868,20.47668,49.86133,20.47668a72.40875,72.40875,0,0,0,33.27319-7.87866,25.88046,25.88046,0,0,0,37.41577-33.36572C348.64651,212.73255,354.2991,203.24317,354.2991,192.59449Z"/><path class="cls-11" d="M217.28543,238.11487c.6449.53711,1.3186,1.05078,1.99219,1.56421-.51221-.564-1.02905-1.12524-1.51245-1.70691C217.60794,238.02588,217.444,238.06409,217.28543,238.11487Z"/><path class="cls-6" d="M136.85741,369.07168c0-9.94509-9.22155-18.00707-20.597-18.00707a22.67912,22.67912,0,0,0-11.13681,2.86275,39.4967,39.4967,0,0,0-13.74888-2.42972c-13.06856,0-24.36353,6.15109-29.734,15.078a13.82335,13.82335,0,1,0,2.29606,26.73157c5.941,7.14715,16.01254,11.8479,27.4379,11.8479a38.67214,38.67214,0,0,0,17.77067-4.20787,13.82235,13.82235,0,0,0,19.98322-17.82009A17.2398,17.2398,0,0,0,136.85741,369.07168Z"/><path class="cls-11" d="M59.93605,389.68543a13.827,13.827,0,0,1-11.6115-1.24315,13.77893,13.77893,0,0,0,15.35608,4.97783A28.99375,28.99375,0,0,1,59.93605,389.68543Z"/><path class="cls-11" d="M136.85741,369.10841a17.26517,17.26517,0,0,0-7.85883-14.14481,16.448,16.448,0,0,1,3.858,10.48635,17.23961,17.23961,0,0,1-7.72883,14.05543,13.823,13.823,0,0,1-19.98316,17.82009A38.67234,38.67234,0,0,1,87.374,401.53333a37.39224,37.39224,0,0,1-22.62932-7.2778c6.02122,6.629,15.70136,10.93626,26.63013,10.93626a38.67234,38.67234,0,0,0,17.77067-4.20787,13.82233,13.82233,0,0,0,19.98316-17.82009A17.2397,17.2397,0,0,0,136.85741,369.10841Z"/><path class="cls-11" d="M63.68063,393.42011c.34443.28686.70424.56121,1.064.83542-.27356-.3012-.5496-.601-.80778-.91163C63.85288,393.37258,63.76532,393.393,63.68063,393.42011Z"/></g></g></svg>