<svg id="图层_1" data-name="图层 1" xmlns="http://www.w3.org/2000/svg" viewBox="0 0 164.66667 190.66667"><defs><style>.cls-1{fill:#e08d80;}.cls-2{fill:#ca7268;}.cls-3{fill:none;stroke:#040000;stroke-miterlimit:10;stroke-width:3px;}</style></defs><title>2020年工时账单（测试）</title><path class="cls-1" d="M107.872,32.79487h-.316V184.25072h50.48554V83.28012h0v-.31575A50.16943,50.16943,0,0,0,107.872,32.79487Z"/><path class="cls-1" d="M6.66326,7.69079A75.73217,75.73217,0,0,1,82.39549,83.423V184.259H6.21514Z"/><polygon class="cls-2" points="107.9 48.6 118.814 185.18 107.556 184.259 107.9 48.6"/><polygon class="cls-2" points="6.663 7.691 12.057 8.109 30.149 184.259 6.215 184.259 6.663 7.691"/><path class="cls-3" d="M6.66326,7.69079A75.73217,75.73217,0,0,1,82.39549,83.423V184.259H6.21514Z"/><path class="cls-3" d="M107.872,32.79487h-.316V184.25072h50.48554V83.28012h0v-.31575A50.16943,50.16943,0,0,0,107.872,32.79487Z"/></svg>