<svg xmlns="http://www.w3.org/2000/svg" viewBox="0 0 125.33333 206.34387"><defs><style>.cls-1{isolation:isolate;}.cls-2{fill:#f9bf3d;}.cls-3{fill:#c89a74;opacity:0.3;mix-blend-mode:multiply;}.cls-4{fill:none;stroke:#040000;stroke-miterlimit:10;stroke-width:3px;}</style></defs><title>2020年工时账单（测试）</title><g class="cls-1"><g id="图层_1" data-name="图层 1"><path class="cls-2" d="M113.55544,95.87308c.00015-.03648.00136-.07252.00136-.109A49.07184,49.07184,0,0,0,72.4065,47.34076c.0168-.21073.02786-.42313.02786-.6381a7.939,7.939,0,0,0-15.87794,0c0,.215.01105.42737.02786.6381A49.07172,49.07172,0,0,0,15.434,95.76408c0,.03648.00129.07252.00136.109H12.07146v105.01H117.08159v-105.01Z"/><rect class="cls-2" x="20.81729" y="117.17594" width="17.31079" height="57.25886"/><rect class="cls-2" x="90.8627" y="117.17594" width="17.31079" height="57.25886"/><rect class="cls-2" x="53.5405" y="117.17594" width="21.90977" height="57.25886"/><rect class="cls-3" x="11.22038" y="95.93805" width="36.09407" height="78.68655"/><polygon class="cls-3" points="52.817 174.625 47.314 174.625 47.314 95.938 63.859 95.764 59.047 118.105 52.817 118.021 52.817 174.625"/><rect class="cls-3" x="52.81729" y="117.17594" width="7.97406" height="57.44866"/><rect class="cls-3" x="90.8627" y="117.17594" width="3.98703" height="57.44866"/><polygon class="cls-3" points="117.069 177.813 31.382 185.3 13.113 200.883 13.113 175.108 117.069 175.108 117.069 177.813"/><polygon class="cls-3" points="84.625 175.108 81.096 175.108 81.096 95.764 93.5 95.764 84.625 175.108"/><line class="cls-4" x1="64.49539" y1="23.36799" x2="64.49539" y2="38.76369"/><path class="cls-4" d="M113.55544,95.87308c.00015-.03648.00136-.07252.00136-.109A49.07184,49.07184,0,0,0,72.4065,47.34076c.0168-.21073.02786-.42313.02786-.6381a7.939,7.939,0,0,0-15.87794,0c0,.215.01105.42737.02786.6381A49.07172,49.07172,0,0,0,15.434,95.76408c0,.03648.00129.07252.00136.109H12.07146v105.01H117.08159v-105.01Z"/><rect class="cls-4" x="20.81729" y="117.17594" width="17.31079" height="57.25886"/><rect class="cls-4" x="90.8627" y="117.17594" width="17.31079" height="57.25886"/><rect class="cls-4" x="53.5405" y="117.17594" width="21.90977" height="57.25886"/><line class="cls-4" x1="14.03508" y1="95.87308" x2="113.55544" y2="95.87308"/><line class="cls-4" x1="12.07146" y1="174.6246" x2="117.06928" y2="174.6246"/><line class="cls-4" x1="47.89479" y1="95.76407" x2="47.89479" y2="175.10835"/><line class="cls-4" x1="81.09599" y1="95.76407" x2="81.09599" y2="175.10835"/><polygon class="cls-3" points="73.375 48.472 55.587 95.795 17.625 95.938 14.035 95.873 20.817 72.173 35.119 56.472 55.375 46.813 62.875 38.764 71.25 41.438 73.375 48.472"/></g></g></svg>