<svg xmlns="http://www.w3.org/2000/svg" viewBox="0 0 373.0625 325.86416"><defs><style>.cls-1{isolation:isolate;}.cls-2,.cls-7{fill:#c89a74;mix-blend-mode:multiply;}.cls-2{opacity:0.3;}.cls-10,.cls-3{fill:#f9bf3d;}.cls-10,.cls-11,.cls-12,.cls-3,.cls-6{stroke:#040000;}.cls-3,.cls-4,.cls-5,.cls-6,.cls-9{stroke-miterlimit:10;}.cls-10,.cls-11,.cls-12,.cls-3,.cls-4,.cls-5,.cls-6,.cls-9{stroke-width:3px;}.cls-4{fill:#86cbd2;}.cls-4,.cls-5{stroke:#211e20;}.cls-5{fill:#fdf3df;}.cls-6{fill:#eb6b5b;}.cls-7{opacity:0.2;}.cls-8{fill:#ad413d;opacity:0.6;}.cls-9{fill:#363b46;stroke:#1e1c1e;}.cls-10,.cls-11,.cls-12{stroke-linecap:round;stroke-linejoin:round;}.cls-11{fill:#b8d380;}.cls-12{fill:#e08d80;}</style></defs><title>2020年工时账单（测试）</title><g class="cls-1"><g id="图层_1" data-name="图层 1"><path class="cls-2" d="M54.10945,306.11933,317.29317,224.3804l.07422,41.52332,12.2688,8.32666.03394,18.96545,5.89844,1.56921-.0293-16.52838,3.70068,2.51178-.113-63.14923,28.30933-8.79218-28.33765-7.1734-.17334-97.01294A29.8,29.8,0,0,0,333.935,54.524l6.134-23.05707-4.2605-1.13342a7.7498,7.7498,0,0,0-9.48193,5.497L322.185,51.398a29.80017,29.80017,0,0,0-29.22363,40.99469l-48.968,85.166-162.626-41.16718L34.917,306.10116ZM308.864,108.56265a29.60549,29.60549,0,0,0,8.22607,2.18848l.15259,85.34985-51.25122-12.97375ZM107.96211,175.23349l118.98022,31.98065-6.1189,10.64233L84.0981,262.45456Z"/><polygon class="cls-3" points="220.298 212.055 225.409 214.994 201.111 257.254 195.212 255.685 220.298 212.055"/><polygon class="cls-3" points="329.273 241.046 323.377 241.057 323.464 289.804 329.363 291.373 329.273 241.046"/><polygon class="cls-4" points="198.964 241.689 225.322 239.676 310.855 90.915 291.916 80.026 198.964 241.689"/><polygon class="cls-4" points="332.701 90.876 310.855 90.915 311.162 262.512 333.034 277.357 332.701 90.876"/><path class="cls-4" d="M325.52042,25.97126h4.40872a0,0,0,0,1,0,0V58.16561a0,0,0,0,1,0,0H317.77043a0,0,0,0,1,0,0V33.72125A7.75,7.75,0,0,1,325.52042,25.97126Z" transform="translate(21.70113 -81.84534) rotate(14.89762)"/><circle class="cls-3" cx="314.35321" cy="77.76517" r="29.79894" transform="translate(158.38408 361.5591) rotate(-75.10238)"/><circle class="cls-4" cx="314.35321" cy="77.76517" r="21.07103" transform="translate(158.38408 361.5591) rotate(-75.10238)"/><circle class="cls-5" cx="314.35321" cy="77.76517" r="7.95277" transform="translate(158.38408 361.5591) rotate(-75.10238)"/><path class="cls-6" d="M74.38509,130.30681l-48.21948,176.238L344.15951,202.8192Zm26.59473,38.842,133.5127,35.88678L77.11581,256.36986Z"/><line class="cls-4" x1="51.02527" y1="286.43976" x2="54.56195" y2="297.28224"/><line class="cls-4" x1="71.30691" y1="279.82414" x2="74.84359" y2="290.66663"/><line class="cls-4" x1="91.58854" y1="273.20853" x2="95.12522" y2="284.05102"/><line class="cls-4" x1="111.87018" y1="266.59292" x2="115.40686" y2="277.43541"/><line class="cls-4" x1="132.15182" y1="259.97731" x2="135.6885" y2="270.81979"/><line class="cls-4" x1="152.43345" y1="253.3617" x2="155.97013" y2="264.20418"/><line class="cls-4" x1="172.71509" y1="246.74609" x2="176.25177" y2="257.58857"/><line class="cls-4" x1="192.99673" y1="240.13047" x2="196.53341" y2="250.97296"/><line class="cls-4" x1="213.27836" y1="233.51486" x2="216.81504" y2="244.35735"/><line class="cls-4" x1="233.56" y1="226.89925" x2="237.09668" y2="237.74174"/><line class="cls-4" x1="253.84164" y1="220.28364" x2="257.37832" y2="231.12613"/><line class="cls-4" x1="274.12327" y1="213.66803" x2="277.65996" y2="224.51051"/><line class="cls-4" x1="294.40491" y1="207.05242" x2="297.94159" y2="217.8949"/><line class="cls-4" x1="80.65052" y1="153.31572" x2="69.669" y2="150.23774"/><line class="cls-4" x1="74.89294" y1="173.85742" x2="63.91143" y2="170.77944"/><line class="cls-4" x1="69.13536" y1="194.39912" x2="58.15385" y2="191.32114"/><line class="cls-4" x1="63.37778" y1="214.94081" x2="52.39627" y2="211.86283"/><line class="cls-4" x1="57.6202" y1="235.48251" x2="46.63869" y2="232.40453"/><line class="cls-4" x1="51.86262" y1="256.02421" x2="40.88111" y2="252.94623"/><line class="cls-4" x1="46.10504" y1="276.56591" x2="35.12353" y2="273.48793"/><polygon class="cls-7" points="54.446 128.214 52.685 119.133 48.64 98.272 15.262 104.743 19.307 125.605 21.067 134.686 42.683 246.174 62.953 172.091 54.446 128.214"/><polygon class="cls-8" points="62.953 172.091 42.683 246.174 42.988 247.746 58.583 270.358 67.077 282.674 70.352 268.076 76.366 241.275 62.953 172.091"/><polygon class="cls-9" points="62.547 283.175 65.348 268.479 53.658 271.141 62.547 283.175"/><polygon class="cls-10" points="37.34 249.046 53.658 271.141 65.348 268.479 70.491 241.497 37.34 249.046"/><rect class="cls-11" x="24.12912" y="131.54275" width="33.99988" height="115.16621" transform="translate(-40.96776 13.85378) rotate(-12.82919)"/><rect class="cls-10" x="10.31611" y="123.84573" width="33.99988" height="9.24997" transform="translate(-27.8444 9.2725) rotate(-12.82919)"/><rect class="cls-12" x="6.92994" y="102.9765" width="33.99988" height="21.24992" transform="translate(-24.62729 8.14942) rotate(-12.82919)"/><line class="cls-11" x1="22.71977" y1="145.97363" x2="43.53728" y2="237.38674"/><line class="cls-11" x1="38.40144" y1="142.01983" x2="59.21896" y2="233.43293"/></g></g></svg>