<svg xmlns="http://www.w3.org/2000/svg" viewBox="0 0 414 758.07686"><defs><style>.cls-1{isolation:isolate;}.cls-2{fill:#fff;}.cls-3{fill:#fdf3df;}.cls-4{fill:#363b46;stroke:#1e1c1e;}.cls-10,.cls-12,.cls-4,.cls-7{stroke-miterlimit:10;stroke-width:3px;}.cls-5{fill:#c89a74;opacity:0.2;mix-blend-mode:multiply;}.cls-6{fill:#b8d380;}.cls-7{fill:#a4a4a4;}.cls-12,.cls-7{stroke:#211e20;}.cls-8{fill:#86cbd2;}.cls-9{fill:#8da95d;}.cls-10,.cls-12{fill:none;}.cls-10{stroke:#040000;}.cls-11{fill:#59b2b5;}</style></defs><title>2020年工时账单（测试）</title><g class="cls-1"><g id="图层_1" data-name="图层 1"><rect class="cls-2" x="96.86637" y="-40.40227" width="317.13363" height="57.72162"/><rect class="cls-3" y="-40.40227" width="414" height="827.77115"/><rect class="cls-4" y="718.57878" width="414" height="68.22881"/><polygon class="cls-5" points="285.679 853.863 415.039 102.403 415.039 853.863 285.679 853.863"/><rect class="cls-6" y="718.57878" width="96.86637" height="68.22881"/><line class="cls-7" x1="96.86637" y1="-40.40231" x2="96.86637" y2="65.48604"/><line class="cls-7" x1="48.86877" y1="17.31936" x2="414" y2="17.31936"/><line class="cls-7" x1="96.86637" y1="617.33988" x2="96.86637" y2="786.78195"/><rect class="cls-8" x="30.86967" y="17.31936" width="65.9967" height="65.9967"/><polygon class="cls-9" points="19.86 786.782 0 786.782 0 718.579 43.693 718.579 19.86 786.782"/><rect class="cls-10" y="718.57878" width="96.86637" height="68.22881"/><polygon class="cls-11" points="30.87 17.326 30.87 83.316 44.361 83.316 68.36 17.328 30.87 17.326"/><rect class="cls-12" x="30.86967" y="17.31936" width="65.9967" height="65.9967"/></g></g></svg>