<svg xmlns="http://www.w3.org/2000/svg" viewBox="0 0 193.33333 212.66667"><defs><style>.cls-1{isolation:isolate;}.cls-2{fill:#f9bf3d;}.cls-3{fill:#c89a74;opacity:0.3;mix-blend-mode:multiply;}.cls-4{fill:none;stroke:#040000;stroke-miterlimit:10;stroke-width:3px;}</style></defs><title>2020年工时账单（测试）</title><g class="cls-1"><g id="图层_1" data-name="图层 1"><path class="cls-2" d="M112.41529,199.92061s5.37534.07337,5.37534-3.08218c0-2.78859-2.89873-3.85267-2.89873-3.85267h4.458s5.00858.477,5.00858-3.52243c0-4.51315-4.78816-4.01779-4.78816-4.01779h-5.504c3.74272-2.972-.97239-5.63228-.97239-5.63228a118.55871,118.55871,0,0,1,17.61229-22.60234c63.11056-62.817,64.43152-120.20344,52.24968-134.43958-14.58848-17.04849-28.47317-2.49551-28.47317-2.49551V14.6986c-1.90788-7.63191-54.0107-7.63191-54.0107-7.63191s-52.10308,0-54.011,7.63191v5.57724s-13.88494-14.553-28.47317,2.49551C5.80634,37.00748,7.127,94.39395,70.23761,157.21092A118.55871,118.55871,0,0,1,87.8499,179.81327s-4.71486,2.66025-.97239,5.63228H81.37376s-4.78842-.49536-4.78842,4.01779c0,3.9994,5.00858,3.52243,5.00858,3.52243h4.458s-2.89873,1.06409-2.89873,3.85267c0,3.15554,5.37534,3.08218,5.37534,3.08218s-.28116.80542-.83809,2.16572h25.56291C112.69645,200.726,112.41529,199.92061,112.41529,199.92061ZM153.96914,44.933s16.36873,4.61952,16.6991-6.168c.18428-6.02326-6.7837-3.53691-9.43407-3.40864-3.41235.16512-3.19219-4.67827-1.1008-6.568,1.33967-1.21037,8.109-8.10895,15.44734,3.55915,0,0,15.81436,25.35434-27.23884,88.42813C148.34186,120.77566,155.95212,77.5066,153.96914,44.933ZM25.3629,32.34753C32.70174,20.67944,39.47083,27.578,40.8105,28.78839c2.09139,1.88969,2.31155,6.73308-1.1008,6.568-2.65038-.12828-9.61835-2.61462-9.43407,3.40864.33011,10.78752,16.6991,6.168,16.6991,6.168-1.983,32.57362,5.62728,75.84268,5.62728,75.84268C9.54881,57.70188,25.3629,32.34753,25.3629,32.34753Z"/><path class="cls-3" d="M183.10289,22.77134c-14.5885-17.04852-28.47314-2.49554-28.47314-2.49554V14.69859c-.42981-1.71924-3.41162-3.05017-7.76636-4.082l-64.231,160.98212a94.25511,94.25511,0,0,1,5.3645,8.2146s-4.715,2.66022-.97241,5.63226H81.52074s-4.78845-.49536-4.78845,4.01776c0,3.99945,5.00854,3.52246,5.00854,3.52246h4.458s-2.89868,1.06409-2.89868,3.85266c0,3.15552,5.37537,3.08215,5.37537,3.08215s-.28113.80542-.838,2.16577h25.56274c-.55688-1.36035-.838-2.16577-.838-2.16577s5.37537.07336,5.37537-3.08215c0-2.78857-2.89868-3.85266-2.89868-3.85266h4.458s5.00854.477,5.00854-3.52246c0-4.51312-4.78809-4.01776-4.78809-4.01776h-5.50415c3.7428-2.972-.97229-5.63226-.97229-5.63226a118.56165,118.56165,0,0,1,17.61218-22.60236C193.96373,94.394,195.28478,37.00748,183.10289,22.77134Zm-34.614,98.00433s7.61023-43.2691,5.6272-75.84271c0,0,16.36877,4.61951,16.6991-6.168.18433-6.02332-6.78369-3.53693-9.434-3.40869-3.41235.16516-3.19226-4.67822-1.10083-6.56793,1.3396-1.21039,8.10889-8.10895,15.44727,3.55914C175.72765,32.34751,191.5421,57.70188,148.48888,120.77567Z"/><path class="cls-4" d="M112.41529,199.92061s5.37534.07337,5.37534-3.08218c0-2.78859-2.89873-3.85267-2.89873-3.85267h4.458s5.00858.477,5.00858-3.52243c0-4.51315-4.78816-4.01779-4.78816-4.01779h-5.504c3.74272-2.972-.97239-5.63228-.97239-5.63228a118.55871,118.55871,0,0,1,17.61229-22.60234c63.11056-62.817,64.43152-120.20344,52.24968-134.43958-14.58848-17.04849-28.47317-2.49551-28.47317-2.49551V14.6986c-1.90788-7.63191-54.0107-7.63191-54.0107-7.63191s-52.10308,0-54.011,7.63191v5.57724s-13.88494-14.553-28.47317,2.49551C5.80634,37.00748,7.127,94.39395,70.23761,157.21092A118.55871,118.55871,0,0,1,87.8499,179.81327s-4.71486,2.66025-.97239,5.63228H81.37376s-4.78842-.49536-4.78842,4.01779c0,3.9994,5.00858,3.52243,5.00858,3.52243h4.458s-2.89873,1.06409-2.89873,3.85267c0,3.15554,5.37534,3.08218,5.37534,3.08218s-.28116.80542-.83809,2.16572h25.56291C112.69645,200.726,112.41529,199.92061,112.41529,199.92061ZM153.96914,44.933s16.36873,4.61952,16.6991-6.168c.18428-6.02326-6.7837-3.53691-9.43407-3.40864-3.41235.16512-3.19219-4.67827-1.1008-6.568,1.33967-1.21037,8.109-8.10895,15.44734,3.55915,0,0,15.81436,25.35434-27.23884,88.42813C148.34186,120.77566,155.95212,77.5066,153.96914,44.933ZM25.3629,32.34753C32.70174,20.67944,39.47083,27.578,40.8105,28.78839c2.09139,1.88969,2.31155,6.73308-1.1008,6.568-2.65038-.12828-9.61835-2.61462-9.43407,3.40864.33011,10.78752,16.6991,6.168,16.6991,6.168-1.983,32.57362,5.62728,75.84268,5.62728,75.84268C9.54881,57.70188,25.3629,32.34753,25.3629,32.34753Z"/></g></g></svg>