<svg xmlns="http://www.w3.org/2000/svg" viewBox="0 0 414 758.07686"><defs><style>.cls-1{isolation:isolate;}.cls-2,.cls-6{fill:#363b46;}.cls-2{stroke:#1e1c1e;}.cls-2,.cls-8{stroke-miterlimit:10;}.cls-2,.cls-7,.cls-8{stroke-width:3px;}.cls-3,.cls-4{fill:#222935;}.cls-4{opacity:0.7;}.cls-5{fill:#556070;}.cls-7{fill:none;stroke-linecap:round;stroke-linejoin:round;}.cls-7,.cls-8{stroke:#040000;}.cls-8{fill:#f9bf3d;}.cls-9{fill:#c89a74;opacity:0.3;mix-blend-mode:multiply;}</style></defs><title>2020年工时账单（测试）</title><g class="cls-1"><g id="图层_1" data-name="图层 1"><rect class="cls-2" y="-39.98806" width="414" height="895.05319"/><path class="cls-3" d="M348.23976,23.71826a72.18632,72.18632,0,0,0,39.538,132.58624c.64246,0,1.27722-.0318,1.91577-.04846A72.18125,72.18125,0,1,1,348.23976,23.71826Z"/><polygon class="cls-4" points="162.793 -40.246 196.214 855.986 0 855.065 0 -39.988 162.793 -40.246"/><rect class="cls-5" y="611.71362" width="414" height="61.12089"/><polygon class="cls-6" points="193.193 611.714 196.324 672.835 0 672.835 0 611.714 193.193 611.714"/><rect class="cls-7" y="611.71362" width="414" height="61.12089"/><rect class="cls-5" y="93.3021" width="414" height="61.12089"/><polygon class="cls-6" points="170.36 93.302 172.86 154.423 0 154.423 0 93.302 170.36 93.302"/><rect class="cls-7" y="93.3021" width="414" height="61.12089"/><path class="cls-8" d="M357.30039,21.13321a72.18632,72.18632,0,0,0,39.538,132.58624c.64246,0,1.27722-.0318,1.91577-.04846A72.18125,72.18125,0,1,1,357.30039,21.13321Z"/><path class="cls-9" d="M398.75412,153.671c-.63843.01666-1.27319.04846-1.91577.04846A72.18637,72.18637,0,0,1,357.30027,21.13321a72.674,72.674,0,0,0-7.80151.63617A72.18088,72.18088,0,0,0,389.5051,154.03812c.64233,0,1.2771-.0318,1.91577-.04846"/></g></g></svg>