<svg xmlns="http://www.w3.org/2000/svg" viewBox="0 0 431.50096 246.47831"><defs><style>.cls-1{isolation:isolate;}.cls-2,.cls-3{fill:#f9bf3d;}.cls-3,.cls-7{stroke:#040000;}.cls-3,.cls-4,.cls-5,.cls-7,.cls-8{stroke-miterlimit:10;stroke-width:3px;}.cls-4,.cls-9{fill:#fdf3df;}.cls-4,.cls-5,.cls-8{stroke:#211e20;}.cls-5{fill:#a4a4a4;}.cls-6{fill:#c89a74;opacity:0.3;mix-blend-mode:multiply;}.cls-7,.cls-8{fill:none;}</style></defs><title>2020年工时账单（测试）</title><g class="cls-1"><g id="图层_1" data-name="图层 1"><polygon class="cls-2" points="174.519 228.676 118.034 228.676 118.034 64.802 146.276 25.339 174.519 64.802 174.519 228.676"/><rect class="cls-3" x="222.09184" y="150.08232" width="98.99357" height="78.59321"/><rect class="cls-4" x="298.74867" y="129.68196" width="32.67029" height="98.99357"/><line class="cls-5" x1="146.27627" y1="6.55169" x2="146.27627" y2="25.33892"/><polygon class="cls-6" points="118.034 188.385 118.034 188.385 118.034 65.802 126.502 65.802 127.586 75.552 123.485 75.552 123.485 180.897 118.034 188.385"/><polygon class="cls-7" points="174.519 228.676 118.034 228.676 118.034 64.802 146.276 25.339 174.519 64.802 174.519 228.676"/><rect class="cls-3" x="344.58562" y="190.8349" width="81.14" height="37.84064"/><polygon class="cls-3" points="321.085 228.676 375.931 228.676 375.931 190.266 321.085 164.389 321.085 228.676"/><polygon class="cls-6" points="146.276 27.552 130.586 65.802 118.034 64.802 146.276 27.552"/><polygon class="cls-6" points="134.419 185.055 123.485 190.835 123.485 75.552 128.952 75.552 134.419 185.055"/><line class="cls-3" x1="118.03403" y1="65.80169" x2="174.51851" y2="65.80169"/><polyline class="cls-7" points="169.068 175.695 169.068 75.552 123.485 75.552 123.485 153.833"/><line class="cls-8" x1="306.75229" y1="142.8911" x2="306.75229" y2="227.21836"/><line class="cls-8" x1="335.55358" y1="203.88503" x2="375.93114" y2="203.88503"/><line class="cls-8" x1="375.93114" y1="209.75522" x2="425.72562" y2="209.75522"/><polygon class="cls-2" points="144.086 228.676 45.092 228.676 45.092 168.105 144.086 150.082 144.086 228.676"/><polygon class="cls-7" points="144.086 228.676 45.092 228.676 45.092 168.105 144.086 150.082 144.086 228.676"/><rect class="cls-4" x="11.72562" y="190.26576" width="145.42771" height="38.40978" transform="translate(168.87896 418.94129) rotate(180)"/><line class="cls-8" x1="144.08562" y1="164.38919" x2="59.41896" y2="179.17875"/><polygon class="cls-6" points="45.092 182.052 144.086 164.761 144.086 190.266 45.092 190.266 45.092 182.052"/><line class="cls-7" x1="19.98966" y1="200.71226" x2="145.57299" y2="200.71226"/><line class="cls-7" x1="130.03133" y1="200.71226" x2="130.03133" y2="211.18108"/><line class="cls-7" x1="98.53133" y1="200.71226" x2="98.53133" y2="211.18108"/><line class="cls-7" x1="67.03133" y1="200.71226" x2="67.03133" y2="211.18108"/><line class="cls-7" x1="35.53133" y1="200.71226" x2="35.53133" y2="211.18108"/><rect class="cls-6" x="19.98966" y="200.71226" width="125.58333" height="6.5061"/><polygon class="cls-6" points="241.419 227.218 222.752 227.218 222.752 150.082 233.919 150.082 241.419 227.218"/><path class="cls-9" d="M224.72234,175.69525a28.82054,28.82054,0,0,0-42.75879,0H161.96368v52.98029h70.20374V175.69525Z"/><path class="cls-8" d="M224.72234,175.69525a28.82054,28.82054,0,0,0-42.75879,0H161.96368v52.98029h70.20374V175.69525Z"/><rect class="cls-3" x="188.71458" y="189.37893" width="11.33333" height="11.33333"/><rect class="cls-3" x="215.75048" y="189.37893" width="11.33333" height="11.33333"/><rect class="cls-3" x="215.75048" y="208.29788" width="11.33333" height="11.33333"/><polygon class="cls-6" points="194.381 167.271 198.836 228.676 161.964 228.676 161.964 176.385 171.961 176.677 181.964 175.695 194.381 167.271"/><rect class="cls-3" x="169.068" y="208.29788" width="30.97992" height="11.33333"/><rect class="cls-3" x="169.068" y="189.37893" width="11.33333" height="11.33333"/><polygon class="cls-6" points="313.252 227.218 298.749 227.218 298.749 129.682 306.752 129.682 306.752 212.385 313.252 227.218"/><rect class="cls-6" x="335.55358" y="203.88503" width="40.37756" height="6.66667"/><polygon class="cls-6" points="335.554 228.676 321.874 228.676 321.874 164.761 326.646 167.013 335.554 228.676"/><polygon class="cls-6" points="377.419 209.755 388.586 209.755 395.919 228.676 375.931 228.676 377.419 209.755"/><rect class="cls-4" x="234.96874" y="160.53536" width="11.33333" height="11.33333"/><rect class="cls-4" x="261.19204" y="160.53536" width="11.33333" height="11.33333"/><rect class="cls-4" x="287.41533" y="160.53536" width="11.33333" height="11.33333"/><rect class="cls-4" x="234.96874" y="183.71226" width="11.33333" height="11.33333"/><rect class="cls-4" x="261.19204" y="183.71226" width="11.33333" height="11.33333"/><rect class="cls-4" x="287.41533" y="183.71226" width="11.33333" height="11.33333"/><rect class="cls-4" x="234.96874" y="208.29788" width="11.33333" height="11.33333"/><rect class="cls-4" x="261.19204" y="208.29788" width="11.33333" height="11.33333"/><rect class="cls-4" x="287.41533" y="208.29788" width="11.33333" height="11.33333"/><rect class="cls-6" x="11.72562" y="190.26576" width="126.36" height="36.9526"/></g></g></svg>