<svg xmlns="http://www.w3.org/2000/svg" viewBox="0 0 414 758.07686"><defs><style>.cls-1{isolation:isolate;}.cls-2{fill:#eb6b5b;stroke:#040000;}.cls-12,.cls-2,.cls-3,.cls-6,.cls-7,.cls-8,.cls-9{stroke-miterlimit:10;stroke-width:3px;}.cls-3{fill:#cd584e;}.cls-12,.cls-3,.cls-6,.cls-8,.cls-9{stroke:#211e20;}.cls-4{fill:#86cbd2;}.cls-5{fill:#59b2b5;}.cls-6{fill:#fdf3df;}.cls-7{fill:#363b46;stroke:#1e1c1e;}.cls-8{fill:#fff;}.cls-9{fill:#f9bf3d;}.cls-10,.cls-11,.cls-13{fill:#c89a74;mix-blend-mode:multiply;}.cls-10{opacity:0.2;}.cls-11{opacity:0.3;}.cls-12{fill:none;}.cls-13{opacity:0.6;}</style></defs><title>2020年工时账单（测试）</title><g class="cls-1"><g id="图层_1" data-name="图层 1"><rect class="cls-2" y="-39.98806" width="414" height="666.57868"/><rect class="cls-3" y="529.04556" width="414" height="327.32721"/><rect class="cls-4" y="-40.11683" width="21.36" height="59.0821"/><polygon class="cls-5" points="0 -40.306 21.36 -40.374 21.86 18.965 0 18.965 0 -40.306"/><rect class="cls-6" x="21.36" y="528.15326" width="392.64" height="328.21951"/><rect class="cls-7" y="527.15326" width="414" height="14"/><rect class="cls-8" y="18.96526" width="414" height="14"/><line class="cls-8" x1="21.36" y1="856.11055" x2="21.36" y2="-39.98806"/><line class="cls-8" x1="340.36" y1="32.96526" x2="340.36" y2="-40.11683"/><rect class="cls-6" y="32.96526" width="414" height="492.58412"/><rect class="cls-7" x="340.36" y="18.96526" width="73.64" height="14"/><rect class="cls-3" x="21.36" y="18.96526" width="319" height="13.61567"/><rect class="cls-9" x="21.36" y="527.15326" width="392.64" height="14"/><rect class="cls-8" x="340.36" y="-40.11683" width="73.64" height="59.0821"/><polygon class="cls-10" points="0 18.965 21.36 18.965 85.86 525.549 0 525.549 0 18.965"/><polygon class="cls-10" points="21.36 856.111 130.51 856.373 87.854 541.153 21.36 541.153 21.36 856.111"/><polygon class="cls-11" points="21.36 541.153 82.251 541.272 80.469 526.442 21.36 527.153 21.36 541.153"/><rect class="cls-12" y="-40.11683" width="21.36" height="59.0821"/><polygon class="cls-13" points="55.027 32.581 39.027 -40.117 21.36 -40.117 21.36 32.581 55.027 32.581"/></g></g></svg>