<svg id="图层_1" data-name="图层 1" xmlns="http://www.w3.org/2000/svg" viewBox="0 0 431.50096 212.66667"><defs><style>.cls-1,.cls-2,.cls-3,.cls-4,.cls-5,.cls-6,.cls-7{fill:none;}.cls-1,.cls-2,.cls-3,.cls-4,.cls-5,.cls-6,.cls-7,.cls-8,.cls-9{stroke:#211e20;stroke-miterlimit:10;stroke-width:3px;}.cls-2{stroke-dasharray:5.9002 5.9002;}.cls-3{stroke-dasharray:6.3058 6.3058;}.cls-4{stroke-dasharray:5.58202 5.58202;}.cls-5{stroke-dasharray:6.15195 6.15195;}.cls-6{stroke-dasharray:4.98969 4.98969;}.cls-7{stroke-dasharray:4.30518 4.30518;}.cls-8{fill:#fff;}.cls-9{fill:#f9bf3d;}</style></defs><title>2020年工时账单（测试）</title><line class="cls-1" x1="385.55483" y1="17.46855" x2="385.55483" y2="20.46855"/><line class="cls-2" x1="385.55483" y1="26.36876" x2="385.55483" y2="188.62431"/><line class="cls-1" x1="385.55483" y1="191.57438" x2="385.55483" y2="194.57438"/><line class="cls-1" x1="329.14907" y1="81.37577" x2="329.14907" y2="84.37577"/><line class="cls-3" x1="329.14907" y1="90.68156" x2="329.14907" y2="188.42149"/><line class="cls-1" x1="329.14907" y1="191.57438" x2="329.14907" y2="194.57438"/><line class="cls-1" x1="272.74306" y1="116.0081" x2="272.74306" y2="119.0081"/><line class="cls-4" x1="272.74306" y1="124.59013" x2="272.74306" y2="188.78337"/><line class="cls-1" x1="272.74306" y1="191.57438" x2="272.74306" y2="194.57438"/><line class="cls-1" x1="216.3373" y1="145.51072" x2="216.3373" y2="148.51072"/><line class="cls-5" x1="216.3373" y1="154.66264" x2="216.3373" y2="188.49839"/><line class="cls-1" x1="216.3373" y1="191.57438" x2="216.3373" y2="194.57438"/><line class="cls-1" x1="159.93154" y1="163.62596" x2="159.93154" y2="166.62596"/><line class="cls-6" x1="159.93154" y1="171.61564" x2="159.93154" y2="189.07957"/><line class="cls-1" x1="159.93154" y1="191.57438" x2="159.93154" y2="194.57438"/><line class="cls-1" x1="103.52553" y1="175.65886" x2="103.52553" y2="178.65886"/><line class="cls-7" x1="103.52553" y1="182.96403" x2="103.52553" y2="189.4218"/><line class="cls-1" x1="103.52553" y1="191.57438" x2="103.52553" y2="194.57438"/><line class="cls-1" x1="47.11977" y1="182.002" x2="47.11977" y2="185.002"/><line class="cls-1" x1="47.11977" y1="191.57438" x2="47.11977" y2="194.57438"/><line class="cls-8" x1="12.24805" y1="194.57439" x2="414.385" y2="194.57439"/><path class="cls-1" d="M45.946,182.002s232.94638-7.66017,339.60894-163.963"/><circle class="cls-9" cx="385.55484" cy="17.46855" r="7.45177"/><circle class="cls-8" cx="329.149" cy="80.2419" r="3.42335"/><circle class="cls-8" cx="272.74316" cy="118.58106" r="3.42335"/><circle class="cls-8" cx="216.33733" cy="144.94378" r="3.42335"/><circle class="cls-8" cx="159.93149" cy="163.05901" r="3.42335"/><circle class="cls-8" cx="103.52565" cy="175.65886" r="3.42335"/><circle class="cls-8" cx="47.11981" cy="182.00198" r="3.42335"/></svg>