<svg id="图层_1" data-name="图层 1" xmlns="http://www.w3.org/2000/svg" viewBox="0 0 57.54395 57.54395"><defs><style>.cls-1{fill-rule:evenodd;}</style></defs><title>2020年工时账单（测试）</title><path class="cls-1" d="M35.6882,35.59485a1.68018,1.68018,0,0,1-1.058-1.95229l1.017-4.538a1.68147,1.68147,0,1,0-1.64035-.36821l-.97447,4.34682a1.68569,1.68569,0,0,1-1.89755,1.30039l-.14839-.02147a1.68029,1.68029,0,0,1-1.45271-1.66184l-.02829-4.44851a1.64258,1.64258,0,1,0-1.60168.00941l.02775,4.449a1.67843,1.67843,0,0,1-1.4314,1.67932l-.1474.02363a1.68741,1.68741,0,0,1-1.91461-1.277L23.4086,28.80154a1.68176,1.68176,0,1,0-1.63531.38807L22.848,33.71528a1.68,1.68,0,0,1-1.0334,1.9646l-.1036.04064a1.68581,1.68581,0,0,1-2.12955-.82294l-2.06634-4.17044a1.681,1.681,0,1,0-1.50623.7463l5.4716,11.04407a43.68316,43.68316,0,0,1,7.31032-.62791,43.73861,43.73861,0,0,1,7.31779.53815l5.33181-11.11024a1.68124,1.68124,0,1,0-1.51588-.72793l-2.01348,4.1953a1.68377,1.68377,0,0,1-2.11832.84907Z"/></svg>