<svg xmlns="http://www.w3.org/2000/svg" viewBox="0 0 414 758.07686"><defs><style>.cls-1{isolation:isolate;}.cls-2{fill:#fdf3df;}.cls-11,.cls-3,.cls-7{fill:none;}.cls-11,.cls-12,.cls-3{stroke:#211e20;}.cls-12,.cls-3,.cls-7,.cls-8{stroke-miterlimit:10;}.cls-11,.cls-12,.cls-3,.cls-7,.cls-8{stroke-width:3px;}.cls-4{fill:#b8d380;}.cls-5{fill:#8da95d;}.cls-6,.cls-9{fill:#c89a74;mix-blend-mode:multiply;}.cls-6{opacity:0.3;}.cls-7{stroke:#1e1c1e;}.cls-8{fill:#eb6b5b;stroke:#040000;}.cls-9{opacity:0.6;}.cls-10{fill:#b14943;}.cls-11{stroke-linecap:round;stroke-linejoin:round;}.cls-12{fill:#86cbd2;}</style></defs><title>2020年工时账单（测试）</title><g class="cls-1"><g id="图层_1" data-name="图层 1"><rect class="cls-2" x="0.035" y="-39.98806" width="413.93" height="539.85853"/><rect class="cls-3" x="0.035" y="-39.98806" width="413.93" height="539.85853"/><rect class="cls-4" x="118.325" y="-39.98806" width="295.64" height="507.41318"/><rect class="cls-5" x="352.40964" y="-39.98806" width="61.55536" height="97.28417"/><polygon class="cls-6" points="-0.035 -39.988 -0.035 443.221 27.821 418.929 12.068 -40.041 -0.035 -39.988"/><rect class="cls-7" x="118.325" y="-39.98806" width="295.64" height="507.41318"/><polygon class="cls-8" points="0.035 443.221 117.715 340.741 296.215 340.741 413.965 443.221 413.965 856.012 0.035 856.111 0.035 443.221"/><polygon class="cls-9" points="25.575 443.221 27.277 424.813 27.821 418.929 -0.035 443.221 25.575 443.221"/><rect class="cls-10" x="-0.035" y="443.2209" width="414" height="412.88965"/><polygon class="cls-9" points="-0.035 801.373 413.982 801.373 413.982 790.29 23.658 443.221 -0.035 443.221 -0.035 801.373"/><rect class="cls-11" x="-0.035" y="443.2209" width="414" height="412.88965"/><rect class="cls-12" x="361.35459" y="-39.98806" width="52.61041" height="95.77267"/></g></g></svg>