<svg id="图层_1" data-name="图层 1" xmlns="http://www.w3.org/2000/svg" viewBox="0 0 414 758.07686"><defs><style>.cls-1{fill:#fdf3df;}.cls-1,.cls-3{stroke:#211e20;}.cls-1,.cls-3,.cls-6,.cls-7,.cls-9{stroke-miterlimit:10;}.cls-1,.cls-2,.cls-3,.cls-5,.cls-6,.cls-7,.cls-9{stroke-width:3px;}.cls-2{fill:#f7d9b5;stroke:#040000;}.cls-2,.cls-5{stroke-linecap:round;stroke-linejoin:round;}.cls-3{fill:#717071;}.cls-4{fill:#eb6b5b;}.cls-5,.cls-9{fill:none;}.cls-5,.cls-6{stroke:#1f1d1f;}.cls-6{fill:#cd584e;}.cls-7{fill:#dfb085;stroke:#1c1b1d;}.cls-8{fill:#b8d380;}.cls-9{stroke:#1e1c1e;}</style></defs><title>2020年工时账单（测试）</title><rect class="cls-1" x="38.69344" y="-41.60848" width="333.97323" height="896"/><rect class="cls-2" x="372.66667" y="-41.60848" width="40.76708" height="896"/><rect class="cls-2" y="-41.60848" width="38.69368" height="896"/><line class="cls-3" x1="38.69344" y1="-41.60848" x2="38.69344" y2="786.16271"/><line class="cls-3" x1="372.66667" y1="-41.60848" x2="372.66667" y2="799.39152"/><rect class="cls-4" x="0.06083" y="703.01194" width="207.7725" height="55"/><rect class="cls-5" x="0.06083" y="703.01194" width="207.7725" height="55"/><circle class="cls-6" cx="25.57676" cy="730.51194" r="13.5"/><circle class="cls-6" cx="77.41935" cy="730.51194" r="13.5"/><circle class="cls-6" cx="129.26194" cy="730.51194" r="13.5"/><circle class="cls-6" cx="181.10454" cy="730.51194" r="13.5"/><rect class="cls-7" x="38.69344" y="-34.8331" width="333.97323" height="46.55925"/><path class="cls-8" d="M380.20833,610.17407l-59.252,14.48645L311.83333,768.48l74.49561-.36084Zm-49.15341,44.72768,1.14092-17.985,33.888-8.28532,1.02348,26.27035Z"/><path class="cls-9" d="M380.20833,610.17407l-59.252,14.48645L311.83333,768.48l74.49561-.36084Zm-49.15341,44.72768,1.14092-17.985,33.888-8.28532,1.02348,26.27035Z"/></svg>