<svg xmlns="http://www.w3.org/2000/svg" viewBox="0 0 426 578"><defs><style>.cls-1{isolation:isolate;}.cls-10,.cls-2,.cls-9{fill:#c89a74;mix-blend-mode:multiply;}.cls-2{opacity:0.3;}.cls-3{fill:#86cbd2;}.cls-4{fill:#59b2b5;}.cls-5{fill:#fdf3df;}.cls-5,.cls-8{stroke:#211e20;}.cls-5,.cls-7,.cls-8{stroke-miterlimit:10;}.cls-5,.cls-6,.cls-7,.cls-8{stroke-width:3px;}.cls-6{fill:#eb6b5b;stroke:#1f1d1f;stroke-linecap:round;stroke-linejoin:round;}.cls-7{fill:#f9bf3d;stroke:#040000;}.cls-8{fill:none;}.cls-9{opacity:0.2;}.cls-10{opacity:0.6;}</style></defs><title>2020年工时账单（测试）</title><g class="cls-1"><g id="图层_1" data-name="图层 1"><rect class="cls-2" x="44.06122" y="162.99835" width="334.33333" height="8.90127"/><rect class="cls-2" x="44.4218" y="13.10991" width="334.30609" height="24"/><polygon class="cls-2" points="22.236 556.824 148.186 556.824 148.186 550.498 43.811 548.373 43.811 13.11 22.236 13.11 22.236 556.824"/><rect class="cls-3" x="149.1914" y="548.82411" width="260" height="16"/><polygon class="cls-4" points="409.191 564.824 386.108 564.824 379.749 556.824 149.191 556.824 149.191 548.332 409.395 548.332 409.191 564.824"/><rect class="cls-5" x="16.21105" y="171.89962" width="392.98035" height="377.03405"/><rect class="cls-6" x="16.21105" y="22.60991" width="392.98035" height="139.58378"/><rect class="cls-7" x="378.39456" y="153.89962" width="9.33333" height="27"/><rect class="cls-7" x="35.088" y="153.89962" width="9.33333" height="27"/><rect class="cls-8" x="149.1914" y="548.82411" width="260" height="16"/><polygon class="cls-9" points="383.061 547.498 409.191 548.934 409.191 171.9 402.197 171.9 383.061 547.498"/><polygon class="cls-10" points="400.542 21.66 409.191 22.61 409.191 162.194 402.197 162.194 400.542 21.66"/></g></g></svg>