<svg id="图层_1" data-name="图层 1" xmlns="http://www.w3.org/2000/svg" viewBox="0 0 414 758.07686"><defs><style>.cls-1{fill:#86cbd2;}.cls-1,.cls-6{stroke:#211e20;}.cls-1,.cls-3,.cls-4,.cls-5,.cls-6{stroke-miterlimit:10;}.cls-1,.cls-2,.cls-3,.cls-4,.cls-5,.cls-6{stroke-width:3px;}.cls-2{fill:#eb6b5b;stroke-linecap:round;stroke-linejoin:round;}.cls-2,.cls-3{stroke:#1f1d1f;}.cls-3,.cls-6{fill:#cd584e;}.cls-4{fill:#b8d380;stroke:#1e1c1e;}.cls-5{fill:#8da95d;stroke:#1c1b1d;}</style></defs><title>2020年工时账单（测试）</title><rect class="cls-1" x="-0.00881" y="-36.27722" width="414.01762" height="631.055"/><polygon class="cls-2" points="-0.009 566.171 -0.009 859.723 414.009 859.723 414.009 493.755 -0.009 566.171"/><rect class="cls-2" x="-0.00881" y="721.73236" width="207.7725" height="55"/><circle class="cls-3" cx="25.50712" cy="749.23236" r="13.5"/><circle class="cls-3" cx="77.34971" cy="749.23236" r="13.5"/><circle class="cls-3" cx="129.1923" cy="749.23236" r="13.5"/><circle class="cls-3" cx="181.03489" cy="749.23236" r="13.5"/><rect class="cls-4" x="203.40432" y="693.53685" width="206.9125" height="55" transform="translate(216.95204 -57.40647) rotate(16.4654)"/><circle class="cls-5" cx="232.2857" cy="698.99574" r="13.5" transform="translate(-503.88317 723.63488) rotate(-73.5346)"/><circle class="cls-5" cx="282.00228" cy="713.68981" r="13.5" transform="translate(-482.34956 781.84188) rotate(-73.5346)"/><circle class="cls-5" cx="331.71887" cy="728.38389" r="13.5" transform="translate(-460.81594 840.04888) rotate(-73.5346)"/><circle class="cls-5" cx="381.43545" cy="743.07796" r="13.5" transform="translate(-439.28233 898.25588) rotate(-73.5346)"/><polygon class="cls-6" points="-0.009 612.577 413.869 540.285 413.869 528.556 -0.009 600.848 -0.009 612.577"/></svg>