<svg id="图层_1" data-name="图层 1" xmlns="http://www.w3.org/2000/svg" viewBox="0 0 433.47833 653.9673"><defs><style>.cls-1{fill:#e08d80;}.cls-2{fill:#f4b5ae;}.cls-3,.cls-6{fill:none;stroke-width:3px;}.cls-3{stroke:#040000;stroke-miterlimit:10;}.cls-4{fill:#eb6b5b;}.cls-5{fill:#cd584e;}.cls-6{stroke:#1f1d1f;stroke-linecap:round;stroke-linejoin:round;}</style></defs><title>2020年工时账单（测试）</title><polygon class="cls-1" points="12.953 330.098 12.953 65.277 426.971 551.044 426.831 638.24 12.953 330.098"/><polygon class="cls-2" points="12.953 291.215 349.437 568.754 336.533 571.011 12.953 330.098 12.953 291.215"/><polygon class="cls-3" points="12.953 330.098 12.953 65.277 426.971 551.044 426.831 638.24 12.953 330.098"/><polygon class="cls-4" points="196.795 25.16 426.971 431.05 426.971 555.192 12.953 65.277 12.953 25.16 196.795 25.16"/><polygon class="cls-5" points="62.412 26.007 426.831 531.215 426.971 555.192 12.953 65.277 12.953 25.16 62.412 26.007"/><polygon class="cls-6" points="196.795 25.16 426.971 431.05 426.971 555.192 12.953 65.277 12.953 25.16 196.795 25.16"/></svg>