<svg id="图层_1" data-name="图层 1" xmlns="http://www.w3.org/2000/svg" viewBox="0 0 436.47818 640.03182"><defs><style>.cls-1{fill:#d8897d;}.cls-2{fill:#edb2ab;}.cls-3,.cls-6{fill:none;stroke-width:3px;}.cls-3{stroke:#070001;stroke-miterlimit:10;}.cls-4{fill:#df695a;}.cls-5{fill:#c5564c;}.cls-6{stroke:#1e1d1f;stroke-linecap:round;stroke-linejoin:round;}</style></defs><title>素材 123</title><polygon class="cls-1" points="11.641 316.709 11.641 51.888 425.659 537.655 425.519 624.851 11.641 316.709"/><polygon class="cls-2" points="11.641 277.826 348.124 555.365 335.22 557.622 11.641 316.709 11.641 277.826"/><polygon class="cls-3" points="11.641 316.709 11.641 51.888 425.659 537.655 425.519 624.851 11.641 316.709"/><polygon class="cls-4" points="195.483 11.771 425.659 417.661 425.659 541.803 11.641 51.888 11.641 11.771 195.483 11.771"/><polygon class="cls-5" points="61.1 12.618 425.519 517.826 425.659 541.803 11.641 51.888 11.641 11.771 61.1 12.618"/><polygon class="cls-6" points="195.483 11.771 425.659 417.661 425.659 541.803 11.641 51.888 11.641 11.771 195.483 11.771"/></svg>