<svg xmlns="http://www.w3.org/2000/svg" viewBox="0 0 436.47818 384.32509"><defs><style>.cls-1{isolation:isolate;}.cls-2{fill:#df695a;stroke-linecap:round;stroke-linejoin:round;}.cls-2,.cls-3{stroke:#1e1d1f;}.cls-10,.cls-2,.cls-3,.cls-4,.cls-5,.cls-6,.cls-9{stroke-width:3px;}.cls-3,.cls-6{fill:#c5564c;}.cls-10,.cls-3,.cls-4,.cls-5,.cls-6,.cls-9{stroke-miterlimit:10;}.cls-4{fill:#b3cc7e;stroke:#1d1c1e;}.cls-5{fill:#89a55d;stroke:#1b1b1d;}.cls-6{stroke:#201e20;}.cls-7{fill:#efba41;}.cls-11,.cls-8{fill:#c49772;mix-blend-mode:multiply;}.cls-8{opacity:0.3;}.cls-9{fill:none;}.cls-10,.cls-9{stroke:#070001;}.cls-10{fill:#d19c40;}.cls-11{opacity:0.6;}</style></defs><title>素材 123</title><g class="cls-1"><g id="图层_1" data-name="图层 1"><polygon class="cls-2" points="10.572 80.409 10.572 373.961 424.59 373.961 424.59 7.993 10.572 80.409"/><rect class="cls-2" x="10.57202" y="264.32174" width="207.7725" height="55"/><circle class="cls-3" cx="36.08794" cy="291.82174" r="13.5"/><circle class="cls-3" cx="87.93054" cy="291.82174" r="13.5"/><circle class="cls-3" cx="139.77313" cy="291.82174" r="13.5"/><circle class="cls-3" cx="191.61572" cy="291.82174" r="13.5"/><rect class="cls-4" x="213.98515" y="236.12623" width="206.9125" height="55" transform="translate(87.73918 -79.16339) rotate(16.4654)"/><circle class="cls-5" cx="242.86652" cy="241.58512" r="13.5" transform="translate(-57.64864 406.01796) rotate(-73.5346)"/><circle class="cls-5" cx="292.58311" cy="256.27919" r="13.5" transform="translate(-36.11502 464.22495) rotate(-73.5346)"/><circle class="cls-5" cx="342.29969" cy="270.97327" r="13.5" transform="translate(-14.58141 522.43195) rotate(-73.5346)"/><circle class="cls-5" cx="392.01628" cy="285.66734" r="13.5" transform="translate(6.95221 580.63895) rotate(-73.5346)"/><polygon class="cls-6" points="10.572 126.815 424.45 54.523 424.45 42.795 10.572 115.087 10.572 126.815"/><rect class="cls-7" x="10.57202" y="319.32174" width="413.93" height="55"/><polygon class="cls-8" points="424.502 320.016 424.502 331.266 324.178 374.016 10.485 374.016 10.485 320.016 424.502 320.016"/><rect class="cls-9" x="10.57202" y="319.32174" width="413.93" height="55"/><circle class="cls-10" cx="243.45831" cy="346.82174" r="13.5"/><circle class="cls-10" cx="295.30091" cy="346.82174" r="13.5"/><circle class="cls-10" cx="347.1435" cy="346.82174" r="13.5"/><circle class="cls-10" cx="398.98609" cy="346.82174" r="13.5"/><circle class="cls-10" cx="36.08794" cy="346.82174" r="13.5"/><circle class="cls-10" cx="87.93054" cy="346.82174" r="13.5"/><circle class="cls-10" cx="139.77313" cy="346.82174" r="13.5"/><circle class="cls-10" cx="191.61572" cy="346.82174" r="13.5"/><polygon class="cls-11" points="211.749 374.322 424.45 42.795 424.59 7.993 306.087 28.72 10.572 190.977 10.572 373.961 211.749 374.322"/></g></g></svg>