<svg xmlns="http://www.w3.org/2000/svg" viewBox="0 0 214.99219 256.8825"><defs><style>.cls-1{isolation:isolate;}.cls-2,.cls-8{fill:#c89a74;mix-blend-mode:multiply;}.cls-2{opacity:0.2;}.cls-3{fill:#f7f7f7;stroke-miterlimit:10;}.cls-3,.cls-5{stroke:#211e20;}.cls-3,.cls-5,.cls-9{stroke-width:3px;}.cls-4{fill:#211e20;}.cls-5,.cls-9{fill:none;stroke-linecap:round;stroke-linejoin:round;}.cls-6{fill:#f4b5ae;}.cls-7{fill:#eb6b5b;}.cls-8{opacity:0.6;}.cls-9{stroke:#040000;}</style></defs><title>2020年工时账单（测试）</title><g class="cls-1"><g id="图层_1" data-name="图层 1"><path class="cls-2" d="M158.218,68.9333c16.45313-40.20918,5.12-54.90067-9.56286-52.37342-10.99408,1.89234-11.874,36.6616-11.23158,46.58325a94.84792,94.84792,0,0,0-26.97767-.27634c1.48463-19.4451-1.89252-49.06113-20.97092-44.127C72.564,23.11325,87.0367,58.9789,90.95321,67.6619c-26.24678,9.70467-42.65849,29.20082-43.32926,53.86349-1.03819,38.17185,32.16458,58.05083,74.40655,58.05083s74.278-20.05033,74.278-58.56011C196.30855,97.37126,182.71447,79.14285,158.218,68.9333Z"/><path class="cls-3" d="M186.69259,232.60377s-10.98741-43.27913-9.70232-50.60413,16.83464-11.43728,16.83464-11.43728c5.78289-2.18465,10.2807-15.54956,10.2807-15.54956,5.9114-15.421,0-12.72236,0-12.72236L195.367,151.029l-29.486-.64643-122.84858,4.065-22.05176-.59142-9.38114-6.811s-4.11228-3.572-1.67061,7.40239c0,0,4.79991,14.227,8.99561,17.52831s8.925,3.89586,15.59147,9.63815,7.3011,28.21616,6.40154,50.83369"/><path class="cls-3" d="M138.89972,64.6344c16.45313-40.20918,5.12-54.90067-9.56286-52.37342-10.99408,1.89234-11.874,36.6616-11.23158,46.58325a94.84792,94.84792,0,0,0-26.97767-.27634c1.48463-19.4451-1.89252-49.06113-20.97092-44.127C53.24573,18.81435,67.71843,54.68,71.63493,63.363c-26.24678,9.70467-42.65849,29.20082-43.32926,53.86349-1.03819,38.17185,32.16458,58.05083,74.40655,58.05083s74.278-20.05033,74.278-58.56011C176.99027,93.07236,163.39619,74.84394,138.89972,64.6344Z"/><circle class="cls-4" cx="81.73198" cy="96.67936" r="5.02136"/><circle class="cls-4" cx="122.68343" cy="94.32594" r="5.02136"/><path class="cls-5" d="M94.18781,112.39075s8.05321,10.88041,17.04882,0"/><circle class="cls-6" cx="147.30848" cy="112.39075" r="16.0505"/><circle class="cls-6" cx="60.66012" cy="114.80862" r="16.0505"/><polyline class="cls-7" points="115.907 175.277 118.647 229.548 103.65 245.868 84.721 228.006 94.741 176.804"/><path class="cls-7" d="M94.18781,167.90652h20.39005s1.02807,15.421-8.05321,16.96315C103.28738,185.4194,92.9884,185.89774,94.18781,167.90652Z"/><path class="cls-7" d="M114.57786,167.90652s26.21578-12.50818,45.92045-15.76374c0,0-8.20161,34.75729-46.33734,22.60467C114.161,174.74745,115.0919,169.877,114.57786,167.90652Z"/><path class="cls-8" d="M115.22214,171.0076s22.07176,5.83909,40.28972-8.29151l-6.30622,8.40829-11.876,5.49792-11.13,1.39221L114.161,174.74745Z"/><polyline class="cls-9" points="115.907 175.277 118.647 229.548 103.65 245.868 84.721 228.006 94.741 176.804"/><path class="cls-9" d="M94.18781,167.90652h20.39005s1.02807,15.421-8.05321,16.96315C103.28738,185.4194,92.9884,185.89774,94.18781,167.90652Z"/><path class="cls-9" d="M114.57786,167.90652s26.21578-12.50818,45.92045-15.76374c0,0-8.20161,34.75729-46.33734,22.60467C114.161,174.74745,115.0919,169.877,114.57786,167.90652Z"/><path class="cls-7" d="M94.18781,167.90652S78.3384,155.8267,46.12555,156.42641c0,0,12.48623,28.44327,47.96562,17.81988Z"/><path class="cls-8" d="M107.9437,168.78875s2.17457,13.61751-7.00535,15.71684c0,0,12.79626,2.84895,14.28379-13.498Z"/><polygon class="cls-8" points="110.473 183.425 116.676 231.694 118.647 229.548 115.631 176.742 110.473 183.425"/><path class="cls-8" d="M93.00787,169.53423s-26.95087,8.48028-44.81848-12.1901c0,0,1.91342,7.12721,4.18141,9.82782s16.05486,8.60548,16.05486,8.60548l12.37591,1.548,13.38625-3.63277Z"/><path class="cls-9" d="M94.18781,167.90652S78.3384,155.8267,46.12555,156.42641c0,0,12.48623,28.44327,47.96562,17.81988Z"/></g></g></svg>