<svg xmlns="http://www.w3.org/2000/svg" viewBox="0 0 414 758.07686"><defs><style>.cls-1{isolation:isolate;}.cls-2{fill:#eb6b5b;stroke-linecap:round;stroke-linejoin:round;}.cls-2,.cls-4,.cls-6{stroke:#040000;}.cls-2,.cls-3,.cls-4,.cls-5,.cls-6,.cls-8{stroke-width:3px;}.cls-3{fill:#fdf3df;}.cls-3,.cls-5,.cls-8{stroke:#211e20;}.cls-3,.cls-4,.cls-5,.cls-6,.cls-8{stroke-miterlimit:10;}.cls-4{fill:#f4b5ae;}.cls-5{fill:#86cbd2;}.cls-6{fill:#f9bf3d;}.cls-10,.cls-11,.cls-7{fill:#c89a74;mix-blend-mode:multiply;}.cls-7{opacity:0.3;}.cls-8{fill:#fff;}.cls-9{fill:#363b46;opacity:0.2;}.cls-10{opacity:0.4;}.cls-11{opacity:0.6;}</style></defs><title>2020年工时账单（测试）</title><g class="cls-1"><g id="图层_1" data-name="图层 1"><polygon class="cls-2" points="414 50.375 167.39 -39.203 414 -39.688 414 50.375"/><rect class="cls-3" y="628.87005" width="414" height="227.4417"/><polygon class="cls-4" points="414 50.375 414 124.367 414 200.421 36.074 -39.584 206.074 -39.688 414 50.375"/><polygon class="cls-4" points="0 792.867 0 856.673 123.305 856.312 414 657.367 414 642.033 0 792.867"/><polygon class="cls-5" points="0 -39.584 0 730.784 414 632.461 414 200.421 36.074 -39.584 0 -39.584"/><circle class="cls-6" cx="102.11334" cy="219.97522" r="72.19312"/><path class="cls-7" d="M40.47279,219.97518a72.18341,72.18341,0,0,1,67.16772-71.99951c-1.66223-.11444-3.33417-.1936-5.02545-.1936a72.19312,72.19312,0,1,0,0,144.38623c1.69128,0,3.36322-.07916,5.02545-.1936A72.18341,72.18341,0,0,1,40.47279,219.97518Z"/><path class="cls-8" d="M214.35028,260.541c0-18.62085-17.26611-33.71582-38.56506-33.71582a42.46359,42.46359,0,0,0-20.85217,5.36011,73.95227,73.95227,0,0,0-25.74292-4.54932c-24.46912,0-45.61743,11.51709-55.67285,28.23145a25.88236,25.88236,0,1,0,4.29907,50.05127c11.12366,13.38208,29.98132,22.18359,51.37378,22.18359a72.40838,72.40838,0,0,0,33.27319-7.87866,25.8805,25.8805,0,0,0,37.41589-33.36572C208.6977,280.679,214.35028,271.18964,214.35028,260.541Z"/><path class="cls-9" d="M70.32538,299.13745a25.88928,25.88928,0,0,1-21.741-2.32764,25.79919,25.79919,0,0,0,28.7522,9.32031A54.2869,54.2869,0,0,1,70.32538,299.13745Z"/><path class="cls-9" d="M214.35028,260.60974c0-10.746-5.75732-20.3103-14.7146-26.48425a30.79658,30.79658,0,0,1,7.22363,19.63428c0,10.64868-5.65259,20.13818-14.47119,26.31689a25.88179,25.88179,0,0,1-37.41577,33.36572,72.40875,72.40875,0,0,1-33.27319,7.87866c-16.39856,0-31.2926-5.18433-42.37036-13.62671C90.60273,320.1062,108.72748,328.171,129.19013,328.171a72.40875,72.40875,0,0,0,33.27319-7.87866,25.88046,25.88046,0,0,0,37.41577-33.36572C208.6977,280.7478,214.35028,271.25842,214.35028,260.60974Z"/><path class="cls-9" d="M77.33661,306.13012c.6449.53711,1.3186,1.05078,1.99219,1.56421-.51221-.564-1.02905-1.12524-1.51245-1.70691C77.65912,306.04113,77.49518,306.07934,77.33661,306.13012Z"/><path class="cls-8" d="M262.83252,359.12446c0,11.87168,11.008,21.49544,24.58707,21.49544a27.07256,27.07256,0,0,0,13.29425-3.41732,47.1481,47.1481,0,0,0,16.41234,2.90041c15.60023,0,29.08329-7.34269,35.4941-17.99889a16.50124,16.50124,0,1,0-2.74086-31.91007c-7.09186-8.53171-19.11452-14.1431-32.75323-14.1431a46.16379,46.16379,0,0,0-21.21325,5.023,16.50005,16.50005,0,0,0-23.85442,21.27224C266.43631,346.28548,262.83252,352.33542,262.83252,359.12446Z"/><path class="cls-9" d="M363.29823,331.7243a16.47911,16.47911,0,0,1-14.24585,24.79993,16.62225,16.62225,0,0,1-2.595-.20471c-6.41089,10.65613-19.8938,17.99878-35.49414,17.99878a47.1476,47.1476,0,0,1-16.41235-2.90039,27.50051,27.50051,0,0,1-28.12537-.93567c4.28748,6.29773,12.14795,10.51941,21.13953,10.51941a27.07251,27.07251,0,0,0,13.29419-3.41724,47.14991,47.14991,0,0,0,16.41235,2.90039c15.60022,0,29.08325-7.34277,35.49414-17.9989a16.50071,16.50071,0,0,0,10.53247-30.7616Z"/><polygon class="cls-2" points="0 792.867 414 642.033 414 632.461 0 730.784 0 792.867"/><polygon class="cls-7" points="414 775.033 288.198 743.463 346.36 703.367 414 657.617 414 775.033"/><polygon class="cls-10" points="288.198 743.463 159.638 735.292 414 642.033 414 657.367 288.198 743.463"/><polygon class="cls-11" points="159.638 735.292 0 735.292 0 730.784 414 632.461 414 642.033 159.638 735.292"/></g></g></svg>