<svg xmlns="http://www.w3.org/2000/svg" viewBox="0 0 425.33333 129.96962"><defs><style>.cls-1{isolation:isolate;}.cls-2{fill:#c89a74;opacity:0.5;mix-blend-mode:multiply;}</style></defs><title>2020年工时账单（测试）</title><g class="cls-1"><g id="图层_1" data-name="图层 1"><path class="cls-2" d="M419.53564,72.40047V54.96517H381.51635c-.21692-.17041-.42737-.35266-.65125-.51025a.0424.0424,0,0,1-.01221-.05664A14.5098,14.5098,0,0,0,373.51,33.533a.04221.04221,0,0,1-.0238-.05688,14.5251,14.5251,0,0,0-7.20007-18.9436.04357.04357,0,0,1-.01123-.07227l.26819-.2467h52.99255V6.13473h-414v8.07886H316.359l2.65027,4.01941L278.52746,54.96517H5.53564v17.4353H273.35827l-2.13379-10.80884A7.857,7.857,0,0,0,270.68554,72.69l12.7207,14.01929-44.79346,38.63623,42.60265-.61344,21.43019-17.83163,6.07166,7.70361a8.97386,8.97386,0,0,0,12.00684,1.1665L334.38073,105.598l.00525-.00342c8.85109-4.92622,44.04985-18.23827,51.3118-33.19409Z"/></g></g></svg>