<svg id="图层_1" data-name="图层 1" xmlns="http://www.w3.org/2000/svg" viewBox="0 0 176.32031 185.3368"><defs><style>.cls-1{fill:#f4b5ae;}.cls-2{fill:#ca7268;}.cls-3{fill:none;stroke:#040000;}.cls-3,.cls-4{stroke-miterlimit:10;stroke-width:3px;}.cls-4{fill:#f7f7f7;stroke:#211e20;}.cls-5{fill:#363b46;opacity:0.2;}</style></defs><title>2020年工时账单（测试）</title><polygon class="cls-1" points="62.368 123.151 9.545 168.713 41.829 168.713 77.088 139.374 62.368 123.151"/><polygon class="cls-2" points="74.243 136.715 35.973 168.088 40.829 168.088 76.088 138.749 74.243 136.715"/><polygon class="cls-3" points="62.368 123.151 9.545 168.713 41.829 168.713 77.088 139.374 62.368 123.151"/><path class="cls-4" d="M90.07134,19.27978a13.77894,13.77894,0,0,0-3.10315,18.70786l20.877,31.6612a.04548.04548,0,0,0,.063.01293l22.46487-14.81306a.04548.04548,0,0,0,.01293-.063L109.27591,22.771A13.50054,13.50054,0,0,0,90.07134,19.27978Z"/><path class="cls-5" d="M110.60167,22.953A13.50047,13.50047,0,0,0,91.3972,19.46176a12.95934,12.95934,0,0,0-1.62683,1.4187A13.49389,13.49389,0,0,1,104.306,26.537l7.08336,10.7932-7.75,15.9375,21.77675,5.28407a.04537.04537,0,0,1-.01294.063L108.93541,69.47348l.2356.35742a.0457.0457,0,0,0,.063.01294l22.46484-14.81323a.04533.04533,0,0,0,.01294-.063Z"/><path class="cls-4" d="M99.68613,152.21215l13.65653-10.17265.00522-.00339c9.44113-5.25463,48.86009-20.35754,52.37566-36.47119A14.43455,14.43455,0,0,0,159.827,90.89648a.04236.04236,0,0,1-.01217-.05664,14.50984,14.50984,0,0,0-7.343-20.86539.04207.04207,0,0,1-.02373-.05677,14.52473,14.52473,0,0,0-7.2001-18.9435.04363.04363,0,0,1-.0112-.07233l22.14932-20.376.0058-.00624a14.51324,14.51324,0,0,0-19.25149-21.216l-.006.00452-3.0088,2.57963L103.37755,49.7689,50.18639,98.0332a7.857,7.857,0,0,0-.539,11.09833l38.03181,41.91412A8.9741,8.9741,0,0,0,99.68613,152.21215Z"/><path class="cls-5" d="M166.30658,11.7283a14.496,14.496,0,0,0-13.88171-4.413,14.506,14.506,0,0,1,8.219,23.20471l-.00574.0061-22.14929,20.3761a.04369.04369,0,0,0,.01123.07239,14.52476,14.52476,0,0,1,7.20007,18.94348.042.042,0,0,0,.0238.05676,14.50987,14.50987,0,0,1,7.3429,20.86536.04252.04252,0,0,0,.01208.05664,14.43421,14.43421,0,0,1,5.89661,14.66846c-3.5155,16.11365-42.93445,31.21655-52.37561,36.47119l-.00525.00342L92.93805,152.21255a8.96761,8.96761,0,0,1-2.21948,1.21106,8.96824,8.96824,0,0,0,8.48865-1.21106l13.65662-10.17261.00513-.00342c9.44116-5.25464,48.86011-20.35754,52.37573-36.47119a14.43473,14.43473,0,0,0-5.89648-14.66846.04219.04219,0,0,1-.01221-.05664,14.51,14.51,0,0,0-7.343-20.86536.04208.04208,0,0,1-.02368-.05676,14.52461,14.52461,0,0,0-7.2002-18.94348.04374.04374,0,0,1-.01123-.07239l22.14941-20.3761.00586-.0061A14.52252,14.52252,0,0,0,166.30658,11.7283Z"/></svg>