<svg xmlns="http://www.w3.org/2000/svg" viewBox="0 0 440.21731 930.34441"><defs><style>.cls-1{isolation:isolate;}.cls-2,.cls-6{fill:#eb6b5b;}.cls-18,.cls-3{fill:#cd584e;}.cls-4,.cls-8{fill:none;}.cls-19,.cls-25,.cls-26,.cls-4,.cls-6,.cls-8,.cls-9{stroke:#040000;}.cls-18,.cls-19,.cls-20,.cls-21,.cls-22,.cls-23,.cls-24,.cls-25,.cls-26,.cls-4,.cls-6,.cls-9{stroke-linecap:round;stroke-linejoin:round;}.cls-10,.cls-18,.cls-19,.cls-20,.cls-21,.cls-22,.cls-23,.cls-24,.cls-25,.cls-26,.cls-4,.cls-6,.cls-8,.cls-9{stroke-width:3px;}.cls-5{fill:#f4b5ae;}.cls-7{fill:#ca7268;}.cls-10,.cls-8{stroke-miterlimit:10;}.cls-9{fill:#f7d9b5;}.cls-10{fill:#dfb085;}.cls-10,.cls-20,.cls-21,.cls-23,.cls-24{stroke:#1c1b1d;}.cls-11,.cls-14,.cls-15,.cls-16,.cls-17{fill:#c89a74;}.cls-11,.cls-12,.cls-13,.cls-14,.cls-15,.cls-16,.cls-17{mix-blend-mode:multiply;}.cls-12,.cls-13{fill:#987258;}.cls-13,.cls-14{opacity:0.8;}.cls-15{opacity:0.6;}.cls-16{opacity:0.4;}.cls-17{opacity:0.9;}.cls-18{stroke:#211e20;}.cls-19{fill:#f9bf3d;}.cls-20{fill:#59b2b5;}.cls-21{fill:#363b46;}.cls-22{fill:#b8d380;stroke:#1e1c1e;}.cls-23{fill:#86cbd2;}.cls-24{fill:#556070;}.cls-25{fill:#d8a03e;}.cls-26{fill:#8da95d;}.cls-27{fill:#fdf3df;opacity:0.5;}</style></defs><title>2020年工时账单（测试）</title><g class="cls-1"><g id="图层_1" data-name="图层 1"><polygon class="cls-2" points="14.14 916.591 428.14 916.23 428.14 703.285 14.14 754.491 14.14 916.591"/><polygon class="cls-3" points="69.342 848.237 428.14 761.379 428.14 703.285 14.14 754.517 69.342 848.237"/><polygon class="cls-2" points="197.469 495.905 428.14 356.705 428.14 218.73 197.469 357.93 197.469 495.905"/><polygon class="cls-2" points="428.14 662.182 197.469 522.981 197.469 385.006 428.14 524.207 428.14 662.182"/><polygon class="cls-3" points="197.469 397.252 428.14 536.231 428.14 662.182 197.469 523.594 197.469 397.252"/><polygon class="cls-4" points="428.14 662.182 197.469 522.981 197.469 385.006 428.14 524.207 428.14 662.182"/><polygon class="cls-3" points="428.14 218.73 197.469 357.709 197.469 495.905 428.14 357.317 428.14 218.73"/><polygon class="cls-4" points="197.469 495.905 428.14 356.705 428.14 218.73 197.469 357.93 197.469 495.905"/><polygon class="cls-2" points="428.14 297.405 197.469 158.205 197.469 20.23 428.14 159.43 428.14 297.405"/><polygon class="cls-3" points="197.469 32.475 428.14 171.454 428.14 297.405 197.469 158.817 197.469 32.475"/><polygon class="cls-5" points="14.14 688.788 14.14 754.491 428.14 703.285 428.14 643.951 14.14 688.788"/><rect class="cls-6" x="14.14007" y="916.41014" width="414.00028" height="0.18036"/><polygon class="cls-7" points="126.67 745.541 428.14 702.745 428.14 657.785 138.5 691.327 126.67 745.541"/><polygon class="cls-8" points="14.14 688.788 14.14 754.491 428.14 703.285 428.14 643.951 14.14 688.788"/><polyline class="cls-9" points="197.469 20.23 197.469 916.23 47.881 916.23 47.881 19.869"/><polyline class="cls-10" points="14.14 20.23 14.14 916.23 47.881 916.23 47.881 19.869"/><polygon class="cls-4" points="14.14 916.591 428.14 916.23 428.14 703.285 14.14 754.491 14.14 916.591"/><polygon class="cls-11" points="197.469 760.797 47.881 773.451 47.881 765.714 197.469 753.06 197.469 760.797"/><polygon class="cls-12" points="14.139 760.797 43.5 774.701 47.881 774.368 47.881 765.714 14.139 753.06 14.139 760.797"/><polygon class="cls-12" points="14.139 916.23 14.139 826.322 47.881 842.618 47.881 916.23 14.139 916.23"/><polygon class="cls-13" points="14.139 684.069 43.5 692.494 47.881 691.343 47.881 682.689 14.139 676.332 14.139 684.069"/><polygon class="cls-14" points="14.139 608.449 43.5 610.816 47.881 608.761 47.881 600.107 14.139 600.711 14.139 608.449"/><polygon class="cls-14" points="14.139 533.509 42.594 526.498 47.881 525.836 47.881 517.182 14.139 523.141 14.139 533.509"/><polygon class="cls-14" points="197.469 686.329 47.881 691.327 47.881 683.589 197.469 678.592 197.469 686.329"/><polygon class="cls-15" points="197.469 610.163 47.881 608.198 47.881 600.461 197.469 602.425 197.469 610.163"/><polygon class="cls-16" points="197.469 537.761 47.881 525.759 47.881 518.022 197.469 530.023 197.469 537.761"/><polygon class="cls-17" points="216.45 741.815 66.863 754.47 66.863 746.733 216.45 734.078 216.45 741.815"/><polygon class="cls-18" points="42.594 517.472 42.594 451.714 14.14 463.798 14.162 523.594 42.594 517.472"/><polygon class="cls-6" points="42.594 451.714 223.594 476.472 223.594 532.007 42.594 517.472 42.594 451.714"/><polygon class="cls-19" points="42.594 526.498 223.594 540.42 223.594 601.831 42.594 599.164 42.594 526.498"/><polygon class="cls-20" points="197.469 681.131 223.594 686.714 197.167 691.451 197.469 681.131"/><polygon class="cls-21" points="197.469 751.779 223.594 759.881 197.469 765.714 197.469 751.779"/><polygon class="cls-22" points="42.594 608.793 223.594 610.857 223.594 676.731 42.594 682.287 42.594 608.793"/><polygon class="cls-23" points="42.594 691.714 223.594 686.714 223.594 750.714 42.594 765.714 42.594 691.714"/><polygon class="cls-24" points="42.594 774.214 223.594 759.881 223.594 819.881 42.594 844.881 42.594 774.214"/><polygon class="cls-25" points="42.594 599.164 42.594 526.498 14.14 533.509 14.14 600.288 42.594 599.164"/><path class="cls-26" d="M42.59388,682.28685V608.79271l-28.45375.71069c.09448,22.05945-.00091,65.92114-.00091,65.92114Z"/><path class="cls-20" d="M14.16284,752.43626,42.594,765.71405v-74l-28.45384-7.05434C14.18811,708.39616,14.2008,731.97533,14.16284,752.43626Z"/><path class="cls-21" d="M42.59388,844.88072V774.2141L14.28358,760.743c-.07361,27.69067.32153,50.88127,0,65.57878Z"/><polygon class="cls-4" points="428.14 297.405 197.469 158.205 197.469 20.23 428.14 159.43 428.14 297.405"/><polygon class="cls-27" points="198.833 515.944 198.833 489.617 214.678 502.78 198.833 515.944"/><polygon class="cls-27" points="198.833 583.564 198.833 557.236 214.678 570.4 198.833 583.564"/><polygon class="cls-27" points="198.833 657.115 198.833 630.787 214.678 643.951 198.833 657.115"/><polygon class="cls-27" points="198.833 732.668 198.833 706.34 214.678 717.95 198.833 732.668"/><polygon class="cls-27" points="198.833 804.421 198.833 778.094 214.678 789.783 198.833 804.421"/></g></g></svg>