<svg id="图层_1" data-name="图层 1" xmlns="http://www.w3.org/2000/svg" viewBox="0 0 463.47683 322.64005"><defs><style>.cls-1{fill:#fff;}.cls-1,.cls-5{stroke:#211e20;}.cls-1,.cls-4{stroke-linecap:round;stroke-linejoin:round;}.cls-1,.cls-4,.cls-5{stroke-width:3px;}.cls-2,.cls-3{fill:#363b46;}.cls-2{opacity:0.4;}.cls-3{opacity:0.2;}.cls-4{fill:#f7d9b5;stroke:#040000;}.cls-5{fill:#fdf3df;stroke-miterlimit:10;}</style></defs><title>2020年工时账单（测试）</title><polygon class="cls-1" points="397.951 124.406 407.953 270.103 8.878 168.052 397.951 124.406"/><polygon class="cls-2" points="70.426 162.362 127.536 154.731 130.865 170.907 22.865 168.333 70.426 162.362"/><polygon class="cls-3" points="274.382 140.029 349.139 130.039 365.9 206.284 289.382 200.695 274.382 140.029"/><polygon class="cls-1" points="8.878 168.052 456.702 32.032 397.951 124.406 8.878 168.052"/><polygon class="cls-1" points="365.9 174.8 407.953 270.103 305.049 243.779 365.9 174.8"/><polygon class="cls-3" points="349.139 130.039 415.382 62.084 250.288 94.496 196.549 111.529 286.799 137.029 349.139 130.039"/><polygon class="cls-3" points="291.956 172.564 365.9 174.8 398.299 251.529 320.141 246.746 291.956 172.564"/><polygon class="cls-1" points="8.878 168.052 282.065 306.611 365.9 174.8 8.878 168.052"/><polygon class="cls-4" points="313.015 108.362 337.715 173.757 297.049 173.498 313.015 108.362"/><polygon class="cls-5" points="322.289 173.757 124.615 169.983 115.877 108.362 313.015 108.362 322.289 173.757"/></svg>