<svg width="48" height="48" viewBox="0 0 24 24" fill="none" xmlns="http://www.w3.org/2000/svg"><rect width="24" height="24" fill="none" rx="0" ry="0"></rect><path fill-rule="evenodd" clip-rule="evenodd" d="M8.89476 4.41012L19.8948 2.41012C20.2148 2.35012 20.5348 2.56012 20.5948 2.89012C20.6026 2.93353 20.6059 2.97659 20.6048 3.01879L20.5948 16.5001C20.5948 18.2101 19.2048 19.6001 17.4948 19.6001C15.7848 19.6001 14.3948 18.2101 14.3948 16.5001C14.3948 14.7901 15.7848 13.4001 17.4948 13.4001C18.2111 13.4001 18.8712 13.644 19.3966 14.0532L19.4042 3.7193L9.60402 5.50116L9.58513 18.2543C9.59152 18.3354 9.59478 18.4174 9.59478 18.5001C9.59478 20.2101 8.20478 21.6001 6.49478 21.6001C4.78478 21.6001 3.39478 20.2101 3.39478 18.5001C3.39478 16.7901 4.78478 15.4001 6.49478 15.4001C7.20736 15.4001 7.86438 15.6415 8.3884 16.0469L8.40475 5.01356C8.39722 4.72156 8.59721 4.46422 8.89476 4.41012ZM19.3948 16.5001C19.3948 15.4501 18.5448 14.6001 17.4948 14.6001C16.4448 14.6001 15.5948 15.4501 15.5948 16.5001C15.5948 17.5501 16.4448 18.4001 17.4948 18.4001C18.5448 18.4001 19.3948 17.5501 19.3948 16.5001ZM8.38505 18.3066C8.28818 17.3476 7.47942 16.6001 6.49478 16.6001C5.44478 16.6001 4.59478 17.4501 4.59478 18.5001C4.59478 19.5501 5.44478 20.4001 6.49478 20.4001C7.51274 20.4001 8.34272 19.6012 8.39242 18.5957C8.38738 18.5646 8.38477 18.5326 8.38477 18.5001L8.38505 18.3066Z" fill="#000000"></path></svg>