<svg id="图层_1" data-name="图层 1" xmlns="http://www.w3.org/2000/svg" viewBox="0 0 45 45"><defs><style>.cls-1{opacity:0.65;}.cls-2{fill:#fff;stroke:#211e20;stroke-miterlimit:10;stroke-width:3px;}.cls-3{fill:#211e20;}</style></defs><title>2020年工时账单2</title><g class="cls-1"><circle class="cls-2" cx="22.5" cy="22.5" r="20"/><path class="cls-3" d="M32.99316,17.58074a4.11646,4.11646,0,0,1-.13742.63529A1.68334,1.68334,0,0,0,32.99316,17.58074Z"/><path class="cls-3" d="M30.70661,13.58124c-2.83482-1.14105-3.34874-4.1813-3.42442-5.6958V7H24.87444V28.22784a8.62793,8.62793,0,0,0-5.6107-.39948c-3.7643.90376-6.318,3.7095-5.704,6.26683s4.1633,3.89784,7.92742,2.99408c3.30113-.79263,5.67034-3.0481,5.78927-5.31594h.00575V13.01365a5.73436,5.73436,0,0,0,2.30068,1.42369c2.9902.99309,3.43715,2.355,3.4103,3.1434A3.49933,3.49933,0,0,0,30.70661,13.58124Z"/></g></svg>