<?xml version="1.0" encoding="UTF-8" standalone="no"?><!DOCTYPE svg PUBLIC "-//W3C//DTD SVG 1.1//EN" "http://www.w3.org/Graphics/SVG/1.1/DTD/svg11.dtd"><svg width="100%" height="100%" viewBox="0 0 193 88" version="1.1" xmlns="http://www.w3.org/2000/svg" xmlns:xlink="http://www.w3.org/1999/xlink" xml:space="preserve" xmlns:serif="http://www.serif.com/" style="fill-rule:evenodd;clip-rule:evenodd;stroke-linejoin:round;stroke-miterlimit:2;"><path d="M135.824,1.222l-1.335,12.779l57.789,0l0,6.579l-58.456,0l-1.622,15.543l53.593,0c0,25.94 -1.812,40.911 -5.436,45.012c-3.529,3.909 -11.157,5.911 -22.791,5.911c-3.051,0 -6.199,-0.19 -9.441,-0.38l-1.812,-6.294c4.673,0.381 7.916,0.667 9.822,0.667c10.776,0 17.261,-1.811 19.359,-5.434c2.193,-3.911 3.337,-14.973 3.337,-33.092l-54.26,0l4.482,-41.863l6.771,0.572Zm30.325,63.226l-165.959,0l0,-6.582l165.959,0l0,6.582Z" style="fill:#ffaa47;fill-rule:nonzero;"/></svg>