<?xml version="1.0" encoding="UTF-8" standalone="no"?><!DOCTYPE svg PUBLIC "-//W3C//DTD SVG 1.1//EN" "http://www.w3.org/Graphics/SVG/1.1/DTD/svg11.dtd"><svg width="100%" height="100%" viewBox="0 0 162 150" version="1.1" xmlns="http://www.w3.org/2000/svg" xmlns:xlink="http://www.w3.org/1999/xlink" xml:space="preserve" xmlns:serif="http://www.serif.com/" style="fill-rule:evenodd;clip-rule:evenodd;stroke-linejoin:round;stroke-miterlimit:2;"><g id="page1-you"><path d="M66.641,109.415l13.878,4.957c7.647,-14.587 14.02,-31.579 18.976,-50.98l-13.311,-3.682c-5.665,20.108 -12.179,36.677 -19.543,49.705" style="fill:#ffaa47;fill-rule:nonzero;"/><path d="M131.076,62.543c6.371,15.718 12.177,33.844 17.275,54.234l13.029,-5.803c-4.815,-18.692 -10.621,-36.395 -17.277,-52.822l-13.027,4.391Z" style="fill:#ffaa47;fill-rule:nonzero;"/><path d="M109.267,131.792c9.63,0 14.445,-4.957 14.445,-14.729l0,-75.621l-14.304,0l0,72.082c0,3.539 -1.699,5.38 -5.098,5.38c-5.097,0 -10.621,-0.424 -16.285,-0.993l3.257,13.881l17.985,0Z" style="fill:#ffaa47;fill-rule:nonzero;"/><path d="M79.103,59.994c5.382,-8.496 10.197,-17.985 14.445,-28.322l48.997,0c-1.982,6.231 -4.248,11.754 -7.079,16.568l14.16,4.106c3.258,-8.356 5.948,-16.71 8.073,-25.206l0,-9.63l-59.053,0c1.275,-4.106 2.549,-8.356 3.683,-12.602l-13.878,-2.975c-4.248,17.703 -11.613,34.413 -22.092,50.129l12.744,7.932Z" style="fill:#ffaa47;fill-rule:nonzero;"/><path d="M0.088,68.099l0,-14c29.373,0 53.27,-23.897 53.27,-53.271l14,0c0,37.093 -30.177,67.271 -67.27,67.271" style="fill:#ffaa47;fill-rule:nonzero;"/><path d="M47.1,61.418l0,88.034l14.726,0l0,-103.221c-4.088,5.799 -9.055,10.935 -14.726,15.187" style="fill:#ffaa47;fill-rule:nonzero;"/></g></svg>