<?xml version="1.0" encoding="UTF-8" standalone="no"?>
<!DOCTYPE svg PUBLIC "-//W3C//DTD SVG 1.1//EN" "http://www.w3.org/Graphics/SVG/1.1/DTD/svg11.dtd">
<svg width="100%" height="100%" viewBox="0 0 208 24" version="1.1" xmlns="http://www.w3.org/2000/svg" xmlns:xlink="http://www.w3.org/1999/xlink" xml:space="preserve" xmlns:serif="http://www.serif.com/" style="fill-rule:evenodd;clip-rule:evenodd;stroke-linejoin:round;stroke-miterlimit:2;">
    <g transform="matrix(1,0,0,1,-2076,-68)">
        <g transform="matrix(1,0,0,1,1898.44,0)">
            <g transform="matrix(1,0,0,1,185.29,68.966)">
                <path d="M0,22.131L0,3.927L-7.528,3.927L-7.528,0L12.072,0L12.072,3.927L4.544,3.927L4.544,22.131L0,22.131Z" style="fill-rule:nonzero;"/>
            </g>
            <g transform="matrix(1,0,0,1,0,-1057.94)">
                <rect x="199.898" y="1126.9" width="4.544" height="22.131"/>
            </g>
            <g transform="matrix(1,0,0,1,222.716,77.6453)">
                <path d="M0,4.773L-3.666,-3.727L-7.305,4.773L0,4.773ZM3.717,13.452L1.557,8.453L-8.89,8.453L-11.019,13.452L-15.742,13.452L-5.783,-8.679L-1.49,-8.679L8.5,13.452L3.717,13.452Z" style="fill-rule:nonzero;"/>
            </g>
            <g transform="matrix(1,0,0,1,250.355,68.966)">
                <path d="M0,22.131L-12.063,7.719L-12.063,22.131L-16.577,22.131L-16.577,0L-13.436,0L-1.366,14.426L-1.366,0L3.147,0L3.147,22.131L0,22.131Z" style="fill-rule:nonzero;"/>
            </g>
            <g transform="matrix(1,0,0,1,273.06,68.966)">
                <path d="M0,22.131L0,12.568L-10.636,12.568L-10.636,22.131L-15.18,22.131L-15.18,0L-10.636,0L-10.636,8.61L0,8.61L0,0L4.543,0L4.543,22.131L0,22.131Z" style="fill-rule:nonzero;"/>
            </g>
            <g transform="matrix(1,0,0,1,291.719,68.9666)">
                <path d="M0,22.439C-3.042,22.439 -5.452,21.566 -7.162,19.845C-8.872,18.126 -9.738,15.638 -9.738,12.453L-9.738,0L-5.194,0L-5.194,12.299C-5.194,16.396 -3.485,18.388 0.031,18.388C3.526,18.388 5.226,16.396 5.226,12.299L5.226,0L9.708,0L9.708,12.453C9.708,15.638 8.846,18.125 7.147,19.845C5.447,21.566 3.043,22.439 0,22.439" style="fill-rule:nonzero;"/>
            </g>
            <g transform="matrix(1,0,0,1,317.867,77.6453)">
                <path d="M0,4.773L-3.667,-3.727L-7.305,4.773L0,4.773ZM3.716,13.452L1.557,8.453L-8.89,8.453L-11.02,13.452L-15.742,13.452L-5.783,-8.679L-1.49,-8.679L8.5,13.452L3.716,13.452Z" style="fill-rule:nonzero;"/>
            </g>
            <g transform="matrix(1,0,0,1,370.466,82.2878)">
                <path d="M0,8.819L0,4.902L-10.58,4.902L-10.58,1.539L0,1.539L0,0L3.655,0L3.655,1.539L14.272,1.539L14.272,4.902L3.655,4.902L3.655,8.819L0,8.819Z" style="fill-rule:nonzero;"/>
            </g>
            <g transform="matrix(1,0,0,1,367.227,82.4668)">
                <path d="M0,-14.254L-3.526,-14.254C-4.318,-12.034 -5.641,-10.066 -7.342,-8.503L-7.342,-4.258C-6.469,-4.831 -5.65,-5.48 -4.895,-6.193L-4.895,0L-1.519,0L-1.519,-10.552C-0.88,-11.713 -0.368,-12.953 0,-14.254" style="fill-rule:nonzero;"/>
            </g>
            <g transform="matrix(1,0,0,1,384.738,76.8037)">
                <path d="M0,-3.858L0,-7.291L-9.291,-4.526L-9.291,-4.98L-9.291,-8.591L-12.642,-8.591L-12.642,-3.529L-17.7,-2.025L-17.7,1.408L-12.642,-0.097L-12.642,1.433L-12.641,1.433L-12.641,1.436C-12.641,3.244 -11.186,4.71 -9.383,4.731L-9.383,4.733L0,4.733L0,1.408L-8.295,1.408C-8.84,1.401 -9.28,0.964 -9.291,0.42L-9.291,-1.094L0,-3.858Z" style="fill-rule:nonzero;"/>
            </g>
            <g transform="matrix(1,0,0,1,344.935,82.8656)">
                <path d="M0,-5.667L0,-10.534L9.803,-10.534L9.803,-13.897L-13.443,-13.897L-13.443,-10.534L-3.652,-10.534L-3.652,-5.667L-14.169,-5.667L-14.169,-2.29L-4.201,-2.29C-5.598,1.889 -9.542,4.91 -14.185,4.91L-14.188,4.91L-14.188,8.23L-14.185,8.23C-8.786,8.23 -4.111,5.14 -1.826,0.632C0.459,5.14 5.133,8.23 10.532,8.23L10.532,4.91C5.89,4.91 1.946,1.889 0.549,-2.29L10.536,-2.29L10.536,-2.584L10.536,-3.292L10.536,-5.637L10.536,-5.667L0,-5.667Z" style="fill-rule:nonzero;"/>
            </g>
        </g>
    </g>
</svg>
