<?xml version="1.0" encoding="utf-8"?>
<!-- Generator: Adobe Illustrator 24.1.1, SVG Export Plug-In . SVG Version: 6.00 Build 0)  -->
<svg version="1.1" id="图层_1" xmlns="http://www.w3.org/2000/svg" xmlns:xlink="http://www.w3.org/1999/xlink" x="0px" y="0px"
	 viewBox="0 0 200 200" style="enable-background:new 0 0 200 200;" xml:space="preserve">
<style type="text/css">
	.st0{fill:#FA9D3B;}
</style>
<path class="st0" d="M88.2,126.4c-4.2,8-8.8,15.7-13.8,23.1c-9.6,13.9-16.2,19.3-20,21.3c-1.7,0.9-3.9,0.4-5-1.3
	c-4.3-6.5-12.6-23.7-20.2-54C21,83.1,18.3,53.3,22.6,43c0.6-1.5,2.3-2.2,3.8-1.6c0.1,0,0.2,0.1,0.3,0.2c5.8,3.4,20.1,15.7,47.1,60.7
	C79.9,112.4,85.1,121.2,88.2,126.4 M170.8,115.5c-7.5,29.8-15.6,46.9-19.9,53.6c-1.3,2-4,2.6-6.1,1.3c-8.1-5-21.4-21.5-33-44
	c3.1-5.2,8.3-14,14.4-24.2c27.2-45.1,41.5-57.4,47.2-60.7c1.3-0.8,3-0.4,3.8,0.9c0.1,0.2,0.2,0.3,0.2,0.5l0,0
	C181.7,53.3,179,83.1,170.8,115.5 M196.5,35.1c-5.2-12.5-13.8-15-18.6-15.4c-17.6-1.3-38.3,20.2-69.4,71.8l-8.6,14.3
	c-2.5-4.2-5.4-9-8.6-14.3C60.3,40,39.5,18.5,22.1,19.8c-4.7,0.4-13.4,2.8-18.6,15.4c-7.2,17.3-1.8,51.1,2.1,69.7
	c5.8,28.1,15.1,56.1,23.8,71.3c5.8,10.1,11.5,15.3,18.1,16.2c1,0.2,2.1,0.2,3.2,0.2c19.5,0,38-25.4,49.3-44.8
	c11.3,19.4,29.8,44.8,49.3,44.8c1.1,0,2.2-0.1,3.2-0.2c6.6-1,12.3-6.1,18.1-16.2c8.6-15.2,18-43.2,23.8-71.3
	C198.3,86.2,203.6,52.4,196.5,35.1"/>
</svg>
