<?xml version="1.0" encoding="UTF-8" standalone="no"?>
<!DOCTYPE svg PUBLIC "-//W3C//DTD SVG 1.1//EN" "http://www.w3.org/Graphics/SVG/1.1/DTD/svg11.dtd">
<svg width="100%" height="100%" viewBox="0 0 512 448" version="1.1" xmlns="http://www.w3.org/2000/svg" xmlns:xlink="http://www.w3.org/1999/xlink" xml:space="preserve" xmlns:serif="http://www.serif.com/" style="fill-rule:evenodd;clip-rule:evenodd;stroke-linejoin:round;stroke-miterlimit:2;">
    <g transform="matrix(1,0,0,1,0,-32)">
        <g>
            <g>
                <g>
                    <path d="M192,32C85.952,32 0,103.648 0,192C0,242.944 28.736,288.128 73.312,317.376L48,368L116.96,338.464C131.744,343.712 147.104,348.032 163.52,350.048C161.28,340.288 160,330.272 160,320C160,231.776 246.112,160 352,160C361.696,160 371.168,160.8 380.512,161.952C363.616,87.968 285.696,32 192,32ZM128,152C114.752,152 104,141.248 104,128C104,114.752 114.752,104 128,104C141.248,104 152,114.752 152,128C152,141.248 141.248,152 128,152ZM256,152C242.752,152 232,141.248 232,128C232,114.752 242.752,104 256,104C269.248,104 280,114.752 280,128C280,141.248 269.248,152 256,152Z" style="fill:rgb(149,149,149);fill-rule:nonzero;"/>
                </g>
            </g>
            <g>
                <g>
                    <path d="M512,320C512,249.312 440.352,192 352,192C263.648,192 192,249.312 192,320C192,390.688 263.648,448 352,448C366.528,448 380.352,445.952 393.76,443.04L480,480L450.176,420.384C487.552,396.96 512,360.928 512,320ZM304,312C290.752,312 280,301.248 280,288C280,274.752 290.752,264 304,264C317.248,264 328,274.752 328,288C328,301.248 317.248,312 304,312ZM400,312C386.752,312 376,301.248 376,288C376,274.752 386.752,264 400,264C413.248,264 424,274.752 424,288C424,301.248 413.248,312 400,312Z" style="fill:rgb(149,149,149);fill-rule:nonzero;"/>
                </g>
            </g>
        </g>
    </g>
</svg>
