<?xml version="1.0" encoding="UTF-8" standalone="no"?>
<!DOCTYPE svg PUBLIC "-//W3C//DTD SVG 1.1//EN" "http://www.w3.org/Graphics/SVG/1.1/DTD/svg11.dtd">
<svg width="100%" height="100%" viewBox="0 0 512 406" version="1.1" xmlns="http://www.w3.org/2000/svg" xmlns:xlink="http://www.w3.org/1999/xlink" xml:space="preserve" xmlns:serif="http://www.serif.com/" style="fill-rule:evenodd;clip-rule:evenodd;stroke-linejoin:round;stroke-miterlimit:2;">
    <g transform="matrix(1,0,0,1,0,-53)">
        <g>
            <path d="M511.509,174.315C513.707,202.368 508.885,235.989 490.048,237.653C459.285,240.363 475.328,207.04 475.733,186.987C476.864,128.853 426.411,88.469 376.981,88.469C362.987,88.469 330.453,97.813 335.467,68.757C337.728,55.957 348.757,56.128 359.787,54.677C442.923,43.797 505.664,100.011 511.509,174.315Z" style="fill:rgb(149,149,149);fill-rule:nonzero;"/>
            <path d="M375.552,241.856C411.285,261.077 454.208,270.656 447.104,327.701C434.005,432.853 211.285,503.488 72.171,426.219C34.027,405.013 -5.461,373.995 0.619,312.213C5.867,259.029 42.219,217.835 77.909,182.741C111.957,149.248 147.84,123.051 196.672,110.976C249.664,97.877 265.323,141.312 251.051,184.149C281.749,182.123 346.795,148.437 375.552,181.333C388.224,195.84 383.381,221.803 375.552,241.856ZM336.917,376.96C348.373,364.203 359.872,344.747 359.808,322.091C359.595,228.331 196.928,207.403 107.947,258.752C6.677,317.205 49.429,422.251 173.781,430.443C239.659,434.795 305.6,411.925 336.917,376.96Z" style="fill:rgb(149,149,149);fill-rule:nonzero;"/>
            <path d="M425.643,215.125C404.8,216.491 412.587,201.088 411.328,182.763C410.539,171.477 401.024,158.443 392.725,154.603C376.448,147.093 351.232,160.064 351.232,137.728C351.232,121.131 365.867,122.859 374.144,122.24C449.984,116.565 454.677,213.227 425.643,215.125Z" style="fill:rgb(149,149,149);fill-rule:nonzero;"/>
            <path d="M273.963,315.051C304.448,405.675 145.6,447.808 116.544,369.941C97.109,317.867 143.787,276.437 192.384,271.424C233.877,267.136 264.811,287.957 273.963,315.051ZM200.96,330.539C207.424,341.547 222.293,333.632 220.992,324.907C219.435,314.816 200.832,316.309 200.96,330.539ZM175.211,378.389C201.92,372.139 205.504,322.667 165.184,331.947C131.328,339.712 137.877,387.115 175.211,378.389Z" style="fill:rgb(149,149,149);fill-rule:nonzero;"/>
        </g>
    </g>
</svg>
