<?xml version="1.0" encoding="UTF-8" standalone="no"?>
<!DOCTYPE svg PUBLIC "-//W3C//DTD SVG 1.1//EN" "http://www.w3.org/Graphics/SVG/1.1/DTD/svg11.dtd">
<svg width="100%" height="100%" viewBox="0 0 174 172" version="1.1" xmlns="http://www.w3.org/2000/svg" xmlns:xlink="http://www.w3.org/1999/xlink" xml:space="preserve" xmlns:serif="http://www.serif.com/" style="fill-rule:evenodd;clip-rule:evenodd;stroke-linejoin:round;stroke-miterlimit:2;">
    <g transform="matrix(1,0,0,1,-13,-14)">
        <path d="M106.435,109.653C106.435,109.653 106.435,95.71 99.643,94.995C92.85,94.279 71.757,94.995 71.757,94.995L71.757,52.093L103.217,52.093C103.217,52.093 102.86,37.793 96.782,37.793L45.658,37.793L54.238,14.912C54.238,14.912 41.368,15.628 36.72,23.85C32.073,32.072 17.415,73.187 17.415,73.187C17.415,73.187 22.42,75.332 30.642,69.254C38.865,63.177 41.725,52.451 41.725,52.451L56.74,51.736L57.098,95.352C57.098,95.352 31,94.995 25.637,95.352C20.275,95.709 17.414,110.01 17.414,110.01L57.098,110.01C57.098,110.01 53.523,134.321 43.513,151.839C33.145,169.357 13.839,183.3 13.839,183.3C13.839,183.3 27.782,189.02 41.368,181.154C54.954,172.932 64.964,137.538 64.964,137.538L96.783,177.222C96.783,177.222 99.643,158.274 96.425,152.912C92.85,147.549 74.259,126.098 74.259,126.098L66.037,133.248L71.757,109.652L106.435,109.652L106.435,109.653ZM114.658,36.721L114.301,165.782L127.171,165.782L131.819,181.87L154.342,165.782L186.161,165.782L186.161,36.721L114.658,36.721ZM171.859,151.481L156.844,151.481L137.896,166.139L133.606,151.481L129.674,151.481L129.674,51.378L171.859,51.378L171.859,151.481Z" style="fill:rgb(149,149,149);fill-rule:nonzero;"/>
    </g>
</svg>
