<svg xmlns="http://www.w3.org/2000/svg" xmlns:xlink="http://www.w3.org/1999/xlink" width="71" height="21" viewBox="0 0 71 21">
<defs>
    <style>
      .cls-1 {
        opacity: 0.8;
        filter: url(#filter);
      }

      .cls-2 {
        fill: none;
        stroke: #fff;
        stroke-width: 1px;
      }

      .cls-3 {
        fill: #8c8c8c;
        fill-rule: evenodd;
      }

      .cls-4 {
        font-size: 14px;
        fill: #fff;
        font-family: "Source Han Sans CN";
        font-weight: 500;
      }
    </style>
    <filter id="filter" filterUnits="userSpaceOnUse">
      <feFlood result="flood" flood-color="#fff"/>
      <feComposite result="composite" operator="in" in2="SourceGraphic"/>
      <feBlend result="blend" in2="SourceGraphic"/>
    </filter>
  </defs>
  <g id="_1" data-name="1" class="cls-1">
    <rect id="圆角矩形_2" data-name="圆角矩形 2" class="cls-2" x="0.5" y="0.5" width="70" height="20" rx="4" ry="4"/>
    <path id="圆角矩形_2_拷贝" data-name="圆角矩形 2 拷贝" class="cls-3" d="M2161.99,146h31v20h-31a4,4,0,0,1-4-4V150A4,4,0,0,1,2161.99,146Zm21.25,15.617-3.42-6.078-1.08-2.158h-0.07c0.08,1.065.21,2.255,0.21,3.376v4.86h-1.54v-10.31H2179l3.42,6.052,1.08,2.185h0.07c-0.08-1.064-.21-2.311-0.21-3.432v-4.805h1.54v10.31h-1.66Zm-12.27-1.233a2.983,2.983,0,0,0,2.28-1.092l0.87,1.022a4.058,4.058,0,0,1-3.2,1.486c-2.6,0-4.59-1.933-4.59-5.31,0-3.361,2.05-5.378,4.65-5.378a3.98,3.98,0,0,1,2.93,1.3l-0.88,1.037a2.746,2.746,0,0,0-2.02-.924c-1.78,0-3.01,1.485-3.01,3.908C2168,158.886,2169.15,160.384,2170.97,160.384Z" transform="translate(-2157.5 -145.5)"/>
    <text id="EN" class="cls-4" x="42.784" y="16.262">EN</text>
  </g>
</svg>
