<svg xmlns="http://www.w3.org/2000/svg" xmlns:xlink="http://www.w3.org/1999/xlink" width="71" height="21" viewBox="0 0 71 21">
<defs>
    <style>
      .cls-1 {
        opacity: 0.8;
        filter: url(#filter);
      }

      .cls-2 {
        fill: none;
        stroke: #fff;
        stroke-width: 1px;
      }

      .cls-3 {
        fill: #8c8c8c;
        fill-rule: evenodd;
      }
    </style>
    <filter id="filter" filterUnits="userSpaceOnUse">
      <feFlood result="flood" flood-color="#fff"/>
      <feComposite result="composite" operator="in" in2="SourceGraphic"/>
      <feBlend result="blend" in2="SourceGraphic"/>
    </filter>
  </defs>
  <g id="_2" data-name="2" class="cls-1">
    <rect id="圆角矩形_2" data-name="圆角矩形 2" class="cls-2" x="0.5" y="0.5" width="70" height="20" rx="4" ry="4"/>
    <path id="圆角矩形_2_拷贝" data-name="圆角矩形 2 拷贝" class="cls-3" d="M2314,146h31a4,4,0,0,1,4,4v12a4,4,0,0,1-4,4h-31V146Zm18.44,15.762h1.54V156.9c0-1.121-.12-2.312-0.21-3.376h0.07l1.08,2.157,3.42,6.079h1.67V151.453h-1.54v4.8c0,1.121.12,2.368,0.21,3.432h-0.07l-1.08-2.185-3.42-6.051h-1.67v10.309Zm-9.8,0h6.25V160.39h-4.62v-3.334h3.78v-1.373h-3.78v-2.872h4.47v-1.358h-6.1v10.309Z" transform="translate(-2278.5 -145.5)"/>
    <path id="圆角矩形_2_拷贝_2" data-name="圆角矩形 2 拷贝 2" class="cls-3" d="M2304.24,161.617l-3.42-6.078-1.08-2.158h-0.07c0.08,1.065.21,2.255,0.21,3.376v4.86h-1.54v-10.31H2300l3.42,6.052,1.08,2.185h0.07c-0.08-1.064-.21-2.311-0.21-3.432v-4.805h1.54v10.31h-1.66Zm-12.27-1.233a2.983,2.983,0,0,0,2.28-1.092l0.87,1.022a4.058,4.058,0,0,1-3.2,1.486c-2.6,0-4.59-1.933-4.59-5.31,0-3.361,2.05-5.378,4.65-5.378a3.98,3.98,0,0,1,2.93,1.3l-0.88,1.037a2.746,2.746,0,0,0-2.02-.924c-1.78,0-3.01,1.485-3.01,3.908C2289,158.886,2290.15,160.384,2291.97,160.384Z" transform="translate(-2278.5 -145.5)"/>
  </g>
</svg>
